STARTFONT 2.1
FONT Franklin Gothic Medium
SIZE 16 75 75
FONTBOUNDINGBOX 19 16 0 -3
STARTPROPERTIES 5
COPYRIGHT "Copyright (c) Monotype Imaging Inc. Version 3.0 08.22.08"
FAMILY_NAME "Franklin Gothic Medium"
PIXEL_SIZE 16
FONT_ASCENT 13
FONT_DESCENT 3
ENDPROPERTIES
CHARS 662
STARTCHAR uni0000
ENCODING 0
SWIDTH 1000 0
DWIDTH 16 0
BBX 12 12 2 0
BITMAP
fff0
8010
8010
8010
8010
8010
8010
8010
8010
8010
8010
fff0
ENDCHAR
STARTCHAR uni0020
ENCODING 32
SWIDTH 250 0
DWIDTH 4 0
BBX 0 0 0 0
BITMAP
ENDCHAR
STARTCHAR uni0021
ENCODING 33
SWIDTH 250 0
DWIDTH 4 0
BBX 2 11 1 0
BITMAP
c0
c0
c0
c0
c0
c0
c0
c0
00
c0
c0
ENDCHAR
STARTCHAR uni0022
ENCODING 34
SWIDTH 375 0
DWIDTH 7 0
BBX 5 5 1 6
BITMAP
d8
d8
d8
d8
d8
ENDCHAR
STARTCHAR uni0023
ENCODING 35
SWIDTH 563 0
DWIDTH 10 0
BBX 9 11 1 0
BITMAP
1200
1200
1200
7f80
2400
2400
ff00
2400
4800
4800
4800
ENDCHAR
STARTCHAR uni0024
ENCODING 36
SWIDTH 563 0
DWIDTH 9 0
BBX 7 13 1 -1
BITMAP
10
7c
d6
d0
d0
f0
7c
1e
16
d6
d6
7c
10
ENDCHAR
STARTCHAR uni0025
ENCODING 37
SWIDTH 750 0
DWIDTH 15 0
BBX 13 11 1 0
BITMAP
70c0
d880
d980
d900
db00
7270
06d8
04d8
0cd8
08d8
1870
ENDCHAR
STARTCHAR uni0026
ENCODING 38
SWIDTH 688 0
DWIDTH 11 0
BBX 9 11 1 0
BITMAP
3800
6c00
6c00
6c00
3800
7980
dd80
cf00
c700
e700
7980
ENDCHAR
STARTCHAR uni0027
ENCODING 39
SWIDTH 188 0
DWIDTH 4 0
BBX 2 5 1 6
BITMAP
c0
c0
c0
c0
c0
ENDCHAR
STARTCHAR uni0028
ENCODING 40
SWIDTH 313 0
DWIDTH 5 0
BBX 4 14 1 -3
BITMAP
10
20
60
40
c0
c0
c0
c0
c0
c0
40
60
20
10
ENDCHAR
STARTCHAR uni0029
ENCODING 41
SWIDTH 313 0
DWIDTH 5 0
BBX 4 14 0 -3
BITMAP
80
40
60
20
30
30
30
30
30
30
20
60
40
80
ENDCHAR
STARTCHAR uni002A
ENCODING 42
SWIDTH 563 0
DWIDTH 9 0
BBX 7 7 1 4
BITMAP
10
10
d6
7c
38
6c
44
ENDCHAR
STARTCHAR uni002B
ENCODING 43
SWIDTH 563 0
DWIDTH 9 0
BBX 7 7 1 2
BITMAP
10
10
10
fe
10
10
10
ENDCHAR
STARTCHAR uni002C
ENCODING 44
SWIDTH 250 0
DWIDTH 4 0
BBX 2 4 1 -2
BITMAP
c0
c0
40
80
ENDCHAR
STARTCHAR uni002D
ENCODING 45
SWIDTH 250 0
DWIDTH 4 0
BBX 4 1 0 3
BITMAP
f0
ENDCHAR
STARTCHAR uni002E
ENCODING 46
SWIDTH 250 0
DWIDTH 4 0
BBX 2 2 1 0
BITMAP
c0
c0
ENDCHAR
STARTCHAR uni002F
ENCODING 47
SWIDTH 500 0
DWIDTH 8 0
BBX 8 14 0 -3
BITMAP
03
02
06
04
0c
08
18
10
30
20
60
40
c0
80
ENDCHAR
STARTCHAR uni0030
ENCODING 48
SWIDTH 563 0
DWIDTH 9 0
BBX 7 11 1 0
BITMAP
38
6c
c6
c6
c6
c6
c6
c6
c6
6c
38
ENDCHAR
STARTCHAR uni0031
ENCODING 49
SWIDTH 563 0
DWIDTH 9 0
BBX 8 11 1 0
BITMAP
18
38
d8
18
18
18
18
18
18
18
ff
ENDCHAR
STARTCHAR uni0032
ENCODING 50
SWIDTH 563 0
DWIDTH 9 0
BBX 7 11 1 0
BITMAP
7c
c6
c6
06
06
0c
0c
18
30
60
fe
ENDCHAR
STARTCHAR uni0033
ENCODING 51
SWIDTH 563 0
DWIDTH 9 0
BBX 7 11 1 0
BITMAP
7c
c6
c6
06
04
3c
06
06
c6
c6
7c
ENDCHAR
STARTCHAR uni0034
ENCODING 52
SWIDTH 563 0
DWIDTH 9 0
BBX 8 11 1 0
BITMAP
1c
1c
2c
2c
4c
4c
8c
ff
0c
0c
0c
ENDCHAR
STARTCHAR uni0035
ENCODING 53
SWIDTH 563 0
DWIDTH 9 0
BBX 7 11 1 0
BITMAP
fe
c0
c0
c0
fc
c6
06
06
c6
c6
7c
ENDCHAR
STARTCHAR uni0036
ENCODING 54
SWIDTH 563 0
DWIDTH 9 0
BBX 7 11 1 0
BITMAP
3c
66
c6
c0
d8
ec
c6
c6
c6
6c
38
ENDCHAR
STARTCHAR uni0037
ENCODING 55
SWIDTH 563 0
DWIDTH 9 0
BBX 7 11 1 0
BITMAP
fe
06
0c
08
18
18
10
30
30
30
30
ENDCHAR
STARTCHAR uni0038
ENCODING 56
SWIDTH 563 0
DWIDTH 9 0
BBX 7 11 1 0
BITMAP
7c
c6
c6
c6
e4
7c
ce
c6
c6
c6
7c
ENDCHAR
STARTCHAR uni0039
ENCODING 57
SWIDTH 563 0
DWIDTH 9 0
BBX 7 11 1 0
BITMAP
38
6c
c6
c6
c6
6e
36
06
c6
cc
78
ENDCHAR
STARTCHAR uni003A
ENCODING 58
SWIDTH 250 0
DWIDTH 4 0
BBX 2 7 1 0
BITMAP
c0
c0
00
00
00
c0
c0
ENDCHAR
STARTCHAR uni003B
ENCODING 59
SWIDTH 250 0
DWIDTH 4 0
BBX 2 9 1 -2
BITMAP
c0
c0
00
00
00
c0
c0
40
80
ENDCHAR
STARTCHAR uni003C
ENCODING 60
SWIDTH 563 0
DWIDTH 9 0
BBX 7 7 1 2
BITMAP
06
1c
70
c0
70
1c
06
ENDCHAR
STARTCHAR uni003D
ENCODING 61
SWIDTH 563 0
DWIDTH 9 0
BBX 7 3 1 4
BITMAP
fe
00
fe
ENDCHAR
STARTCHAR uni003E
ENCODING 62
SWIDTH 563 0
DWIDTH 9 0
BBX 7 7 1 2
BITMAP
c0
70
1c
06
1c
70
c0
ENDCHAR
STARTCHAR uni003F
ENCODING 63
SWIDTH 500 0
DWIDTH 8 0
BBX 6 11 1 0
BITMAP
78
cc
cc
0c
0c
18
30
30
00
30
30
ENDCHAR
STARTCHAR uni0040
ENCODING 64
SWIDTH 688 0
DWIDTH 11 0
BBX 11 11 0 0
BITMAP
1f00
2080
4040
8f20
9120
9120
9340
8d80
4000
20c0
1f00
ENDCHAR
STARTCHAR uni0041
ENCODING 65
SWIDTH 625 0
DWIDTH 9 0
BBX 9 11 0 0
BITMAP
0c00
1c00
1600
1600
3600
2300
2300
7f00
4180
4180
c180
ENDCHAR
STARTCHAR uni0042
ENCODING 66
SWIDTH 625 0
DWIDTH 10 0
BBX 8 11 1 0
BITMAP
fc
c6
c3
c3
c6
fc
c6
c3
c3
c6
fc
ENDCHAR
STARTCHAR uni0043
ENCODING 67
SWIDTH 563 0
DWIDTH 10 0
BBX 8 11 1 0
BITMAP
3c
66
c3
c3
c0
c0
c0
c3
c3
66
3c
ENDCHAR
STARTCHAR uni0044
ENCODING 68
SWIDTH 625 0
DWIDTH 10 0
BBX 8 11 1 0
BITMAP
fc
c6
c3
c3
c3
c3
c3
c3
c3
c6
fc
ENDCHAR
STARTCHAR uni0045
ENCODING 69
SWIDTH 563 0
DWIDTH 9 0
BBX 7 11 1 0
BITMAP
fe
c0
c0
c0
c0
fc
c0
c0
c0
c0
fe
ENDCHAR
STARTCHAR uni0046
ENCODING 70
SWIDTH 500 0
DWIDTH 9 0
BBX 7 11 1 0
BITMAP
fe
c0
c0
c0
c0
fc
c0
c0
c0
c0
c0
ENDCHAR
STARTCHAR uni0047
ENCODING 71
SWIDTH 625 0
DWIDTH 10 0
BBX 8 11 1 0
BITMAP
3c
66
c3
c3
c0
c0
cf
c3
c3
67
3d
ENDCHAR
STARTCHAR uni0048
ENCODING 72
SWIDTH 625 0
DWIDTH 10 0
BBX 8 11 1 0
BITMAP
c3
c3
c3
c3
c3
ff
c3
c3
c3
c3
c3
ENDCHAR
STARTCHAR uni0049
ENCODING 73
SWIDTH 250 0
DWIDTH 4 0
BBX 2 11 1 0
BITMAP
c0
c0
c0
c0
c0
c0
c0
c0
c0
c0
c0
ENDCHAR
STARTCHAR uni004A
ENCODING 74
SWIDTH 375 0
DWIDTH 6 0
BBX 5 11 0 0
BITMAP
18
18
18
18
18
18
18
18
18
18
f0
ENDCHAR
STARTCHAR uni004B
ENCODING 75
SWIDTH 625 0
DWIDTH 10 0
BBX 8 11 1 0
BITMAP
c3
c6
c4
cc
d8
fc
ec
c6
c6
c3
c3
ENDCHAR
STARTCHAR uni004C
ENCODING 76
SWIDTH 500 0
DWIDTH 8 0
BBX 7 11 1 0
BITMAP
c0
c0
c0
c0
c0
c0
c0
c0
c0
c0
fe
ENDCHAR
STARTCHAR uni004D
ENCODING 77
SWIDTH 813 0
DWIDTH 13 0
BBX 11 11 1 0
BITMAP
e0e0
e0e0
f1e0
b160
b160
9b60
9a60
9a60
8e60
8c60
8c60
ENDCHAR
STARTCHAR uni004E
ENCODING 78
SWIDTH 625 0
DWIDTH 10 0
BBX 8 11 1 0
BITMAP
c1
e1
e1
b1
b1
99
8d
8d
87
83
83
ENDCHAR
STARTCHAR uni004F
ENCODING 79
SWIDTH 625 0
DWIDTH 10 0
BBX 8 11 1 0
BITMAP
3c
66
c3
c3
c3
c3
c3
c3
c3
66
3c
ENDCHAR
STARTCHAR uni0050
ENCODING 80
SWIDTH 625 0
DWIDTH 10 0
BBX 8 11 1 0
BITMAP
fc
c6
c3
c3
c6
fc
c0
c0
c0
c0
c0
ENDCHAR
STARTCHAR uni0051
ENCODING 81
SWIDTH 625 0
DWIDTH 10 0
BBX 8 13 1 -2
BITMAP
3c
66
c3
c3
c3
c3
c3
c3
c3
66
3c
04
03
ENDCHAR
STARTCHAR uni0052
ENCODING 82
SWIDTH 625 0
DWIDTH 10 0
BBX 8 11 1 0
BITMAP
fc
c6
c3
c3
c6
fc
cc
c6
c6
c3
c3
ENDCHAR
STARTCHAR uni0053
ENCODING 83
SWIDTH 563 0
DWIDTH 9 0
BBX 8 11 0 0
BITMAP
3e
63
60
70
3c
1e
07
03
c3
67
3e
ENDCHAR
STARTCHAR uni0054
ENCODING 84
SWIDTH 500 0
DWIDTH 8 0
BBX 8 11 0 0
BITMAP
ff
18
18
18
18
18
18
18
18
18
18
ENDCHAR
STARTCHAR uni0055
ENCODING 85
SWIDTH 625 0
DWIDTH 10 0
BBX 8 11 1 0
BITMAP
c1
c1
c1
c1
c1
c1
c1
c1
c1
62
3c
ENDCHAR
STARTCHAR uni0056
ENCODING 86
SWIDTH 563 0
DWIDTH 9 0
BBX 9 11 0 0
BITMAP
c180
c100
c100
6300
6200
6200
3600
3400
3400
1c00
1800
ENDCHAR
STARTCHAR uni0057
ENCODING 87
SWIDTH 875 0
DWIDTH 14 0
BBX 14 11 0 0
BITMAP
c304
c30c
c308
6388
6398
6490
34d0
34f0
3860
1860
1860
ENDCHAR
STARTCHAR uni0058
ENCODING 88
SWIDTH 563 0
DWIDTH 9 0
BBX 9 11 0 0
BITMAP
c180
6100
6200
3600
1c00
1c00
1c00
2600
2300
4300
c180
ENDCHAR
STARTCHAR uni0059
ENCODING 89
SWIDTH 563 0
DWIDTH 8 0
BBX 8 11 0 0
BITMAP
c1
c3
62
66
34
3c
18
18
18
18
18
ENDCHAR
STARTCHAR uni005A
ENCODING 90
SWIDTH 563 0
DWIDTH 10 0
BBX 8 11 1 0
BITMAP
ff
03
06
0c
0c
18
30
30
60
c0
ff
ENDCHAR
STARTCHAR uni005B
ENCODING 91
SWIDTH 313 0
DWIDTH 5 0
BBX 3 14 1 -3
BITMAP
e0
c0
c0
c0
c0
c0
c0
c0
c0
c0
c0
c0
c0
e0
ENDCHAR
STARTCHAR uni005C
ENCODING 92
SWIDTH 500 0
DWIDTH 8 0
BBX 8 14 0 -3
BITMAP
c0
40
60
20
30
10
18
08
0c
04
06
02
03
01
ENDCHAR
STARTCHAR uni005D
ENCODING 93
SWIDTH 313 0
DWIDTH 5 0
BBX 3 14 1 -3
BITMAP
e0
60
60
60
60
60
60
60
60
60
60
60
60
e0
ENDCHAR
STARTCHAR uni005E
ENCODING 94
SWIDTH 500 0
DWIDTH 8 0
BBX 7 6 1 6
BITMAP
10
38
28
6c
44
c6
ENDCHAR
STARTCHAR uni005F
ENCODING 95
SWIDTH 500 0
DWIDTH 8 0
BBX 8 1 0 -3
BITMAP
ff
ENDCHAR
STARTCHAR uni0060
ENCODING 96
SWIDTH 500 0
DWIDTH 8 0
BBX 4 3 2 9
BITMAP
c0
60
30
ENDCHAR
STARTCHAR uni0061
ENCODING 97
SWIDTH 563 0
DWIDTH 9 0
BBX 7 8 1 0
BITMAP
7c
c6
06
7e
c6
c6
ce
76
ENDCHAR
STARTCHAR uni0062
ENCODING 98
SWIDTH 563 0
DWIDTH 9 0
BBX 7 11 1 0
BITMAP
c0
c0
c0
d8
ec
c6
c6
c6
c6
ec
b8
ENDCHAR
STARTCHAR uni0063
ENCODING 99
SWIDTH 438 0
DWIDTH 9 0
BBX 7 8 1 0
BITMAP
38
6c
c6
c0
c0
c6
6c
38
ENDCHAR
STARTCHAR uni0064
ENCODING 100
SWIDTH 563 0
DWIDTH 9 0
BBX 7 11 1 0
BITMAP
06
06
06
36
6e
c6
c6
c6
c6
6e
36
ENDCHAR
STARTCHAR uni0065
ENCODING 101
SWIDTH 500 0
DWIDTH 9 0
BBX 7 8 1 0
BITMAP
3c
66
c6
fe
c0
c0
66
3c
ENDCHAR
STARTCHAR uni0066
ENCODING 102
SWIDTH 313 0
DWIDTH 5 0
BBX 5 11 0 0
BITMAP
38
60
60
f8
60
60
60
60
60
60
60
ENDCHAR
STARTCHAR uni0067
ENCODING 103
SWIDTH 500 0
DWIDTH 8 0
BBX 8 12 0 -3
BITMAP
07
3c
66
66
66
3c
60
7e
7f
c3
c2
7c
ENDCHAR
STARTCHAR uni0068
ENCODING 104
SWIDTH 563 0
DWIDTH 9 0
BBX 7 11 1 0
BITMAP
c0
c0
c0
dc
e6
c6
c6
c6
c6
c6
c6
ENDCHAR
STARTCHAR uni0069
ENCODING 105
SWIDTH 250 0
DWIDTH 4 0
BBX 2 11 1 0
BITMAP
c0
c0
00
c0
c0
c0
c0
c0
c0
c0
c0
ENDCHAR
STARTCHAR uni006A
ENCODING 106
SWIDTH 250 0
DWIDTH 4 0
BBX 3 14 0 -3
BITMAP
60
60
00
60
60
60
60
60
60
60
60
60
60
c0
ENDCHAR
STARTCHAR uni006B
ENCODING 107
SWIDTH 563 0
DWIDTH 9 0
BBX 7 11 1 0
BITMAP
c0
c0
c0
c6
cc
c8
d8
ec
cc
c6
c6
ENDCHAR
STARTCHAR uni006C
ENCODING 108
SWIDTH 250 0
DWIDTH 4 0
BBX 2 11 1 0
BITMAP
c0
c0
c0
c0
c0
c0
c0
c0
c0
c0
c0
ENDCHAR
STARTCHAR uni006D
ENCODING 109
SWIDTH 875 0
DWIDTH 14 0
BBX 12 8 1 0
BITMAP
dce0
e730
c630
c630
c630
c630
c630
c630
ENDCHAR
STARTCHAR uni006E
ENCODING 110
SWIDTH 563 0
DWIDTH 9 0
BBX 7 8 1 0
BITMAP
dc
e6
c6
c6
c6
c6
c6
c6
ENDCHAR
STARTCHAR uni006F
ENCODING 111
SWIDTH 500 0
DWIDTH 9 0
BBX 7 8 1 0
BITMAP
38
6c
c6
c6
c6
c6
6c
38
ENDCHAR
STARTCHAR uni0070
ENCODING 112
SWIDTH 563 0
DWIDTH 9 0
BBX 7 11 1 -3
BITMAP
d8
ec
c6
c6
c6
c6
ec
d8
c0
c0
c0
ENDCHAR
STARTCHAR uni0071
ENCODING 113
SWIDTH 563 0
DWIDTH 9 0
BBX 7 11 1 -3
BITMAP
3a
66
c6
c6
c6
c6
6e
36
06
06
06
ENDCHAR
STARTCHAR uni0072
ENCODING 114
SWIDTH 313 0
DWIDTH 5 0
BBX 4 8 1 0
BITMAP
d0
f0
e0
c0
c0
c0
c0
c0
ENDCHAR
STARTCHAR uni0073
ENCODING 115
SWIDTH 438 0
DWIDTH 8 0
BBX 6 8 1 0
BITMAP
78
cc
c0
f0
3c
0c
cc
78
ENDCHAR
STARTCHAR uni0074
ENCODING 116
SWIDTH 313 0
DWIDTH 6 0
BBX 5 10 0 0
BITMAP
60
60
f8
60
60
60
60
60
60
38
ENDCHAR
STARTCHAR uni0075
ENCODING 117
SWIDTH 563 0
DWIDTH 9 0
BBX 7 8 1 0
BITMAP
c6
c6
c6
c6
c6
c6
ce
76
ENDCHAR
STARTCHAR uni0076
ENCODING 118
SWIDTH 438 0
DWIDTH 7 0
BBX 7 8 0 0
BITMAP
c2
c6
64
6c
38
38
10
10
ENDCHAR
STARTCHAR uni0077
ENCODING 119
SWIDTH 688 0
DWIDTH 11 0
BBX 11 8 0 0
BITMAP
c460
c460
6ec0
6ec0
6ac0
3b80
3180
3180
ENDCHAR
STARTCHAR uni0078
ENCODING 120
SWIDTH 438 0
DWIDTH 7 0
BBX 7 8 0 0
BITMAP
c6
64
38
30
18
38
4c
c6
ENDCHAR
STARTCHAR uni0079
ENCODING 121
SWIDTH 438 0
DWIDTH 7 0
BBX 7 11 0 -3
BITMAP
c2
c6
64
64
2c
38
38
18
10
30
60
ENDCHAR
STARTCHAR uni007A
ENCODING 122
SWIDTH 438 0
DWIDTH 8 0
BBX 6 8 1 0
BITMAP
fc
0c
18
30
30
60
c0
fc
ENDCHAR
STARTCHAR uni007B
ENCODING 123
SWIDTH 313 0
DWIDTH 5 0
BBX 5 14 0 -3
BITMAP
38
60
60
60
60
60
80
60
60
60
60
60
60
38
ENDCHAR
STARTCHAR uni007C
ENCODING 124
SWIDTH 500 0
DWIDTH 8 0
BBX 2 14 3 -3
BITMAP
c0
c0
c0
c0
c0
c0
c0
c0
c0
c0
c0
c0
c0
c0
ENDCHAR
STARTCHAR uni007D
ENCODING 125
SWIDTH 313 0
DWIDTH 5 0
BBX 5 14 0 -3
BITMAP
e0
30
30
30
30
30
08
30
30
30
30
30
30
e0
ENDCHAR
STARTCHAR uni007E
ENCODING 126
SWIDTH 563 0
DWIDTH 10 0
BBX 8 2 1 4
BITMAP
73
ce
ENDCHAR
STARTCHAR uni00C4
ENCODING 196
SWIDTH 625 0
DWIDTH 9 0
BBX 9 13 0 0
BITMAP
3600
3600
0000
0c00
1c00
1600
1600
3600
2300
3f00
6300
4180
c180
ENDCHAR
STARTCHAR uni00C5
ENCODING 197
SWIDTH 625 0
DWIDTH 9 0
BBX 9 13 0 0
BITMAP
0c00
1200
1200
0c00
1c00
1600
1600
3600
2300
3f00
6300
4180
c180
ENDCHAR
STARTCHAR uni00C7
ENCODING 199
SWIDTH 563 0
DWIDTH 10 0
BBX 8 14 1 -3
BITMAP
3c
66
c3
c3
c0
c0
c0
c3
c3
66
3c
08
04
18
ENDCHAR
STARTCHAR uni00C9
ENCODING 201
SWIDTH 563 0
DWIDTH 9 0
BBX 7 13 1 0
BITMAP
0c
18
00
fe
c0
c0
c0
fc
c0
c0
c0
c0
fe
ENDCHAR
STARTCHAR uni00D1
ENCODING 209
SWIDTH 625 0
DWIDTH 10 0
BBX 8 13 1 0
BITMAP
1a
2c
00
c1
e1
f1
b1
99
8d
8d
87
83
83
ENDCHAR
STARTCHAR uni00D6
ENCODING 214
SWIDTH 625 0
DWIDTH 10 0
BBX 8 13 1 0
BITMAP
36
36
00
3c
66
c3
c3
c3
c3
c3
c3
66
3c
ENDCHAR
STARTCHAR uni00DC
ENCODING 220
SWIDTH 625 0
DWIDTH 10 0
BBX 8 13 1 0
BITMAP
36
36
00
c1
c1
c1
c1
c1
c1
c1
c1
62
3c
ENDCHAR
STARTCHAR uni00E1
ENCODING 225
SWIDTH 563 0
DWIDTH 9 0
BBX 7 12 1 0
BITMAP
0c
18
30
00
7c
c6
06
7e
c6
c6
ce
76
ENDCHAR
STARTCHAR uni00E0
ENCODING 224
SWIDTH 563 0
DWIDTH 9 0
BBX 7 12 1 0
BITMAP
60
30
18
00
7c
c6
06
7e
c6
c6
ce
76
ENDCHAR
STARTCHAR uni00E2
ENCODING 226
SWIDTH 563 0
DWIDTH 9 0
BBX 7 11 1 0
BITMAP
38
6c
00
7c
c6
06
7e
c6
c6
ce
76
ENDCHAR
STARTCHAR uni00E4
ENCODING 228
SWIDTH 563 0
DWIDTH 9 0
BBX 7 11 1 0
BITMAP
6c
6c
00
7c
c6
06
7e
c6
c6
ce
76
ENDCHAR
STARTCHAR uni00E3
ENCODING 227
SWIDTH 563 0
DWIDTH 9 0
BBX 7 11 1 0
BITMAP
34
58
00
7c
c6
06
7e
c6
c6
ce
76
ENDCHAR
STARTCHAR uni00E5
ENCODING 229
SWIDTH 563 0
DWIDTH 9 0
BBX 7 13 1 0
BITMAP
18
24
24
18
00
7c
c6
06
7e
c6
c6
ce
76
ENDCHAR
STARTCHAR uni00E7
ENCODING 231
SWIDTH 438 0
DWIDTH 9 0
BBX 7 11 1 -3
BITMAP
38
6c
c6
c0
c0
c6
6c
38
10
08
30
ENDCHAR
STARTCHAR uni00E9
ENCODING 233
SWIDTH 500 0
DWIDTH 9 0
BBX 7 12 1 0
BITMAP
06
0c
18
00
3c
66
c6
fe
c0
c0
66
3c
ENDCHAR
STARTCHAR uni00E8
ENCODING 232
SWIDTH 500 0
DWIDTH 9 0
BBX 7 12 1 0
BITMAP
60
30
18
00
3c
66
c6
fe
c0
c0
66
3c
ENDCHAR
STARTCHAR uni00EA
ENCODING 234
SWIDTH 500 0
DWIDTH 9 0
BBX 7 11 1 0
BITMAP
38
6c
00
3c
66
c6
fe
c0
c0
66
3c
ENDCHAR
STARTCHAR uni00EB
ENCODING 235
SWIDTH 500 0
DWIDTH 9 0
BBX 7 11 1 0
BITMAP
6c
6c
00
3c
66
c6
fe
c0
c0
66
3c
ENDCHAR
STARTCHAR uni00ED
ENCODING 237
SWIDTH 250 0
DWIDTH 4 0
BBX 4 12 0 0
BITMAP
30
60
c0
00
60
60
60
60
60
60
60
60
ENDCHAR
STARTCHAR uni00EC
ENCODING 236
SWIDTH 250 0
DWIDTH 4 0
BBX 4 12 0 0
BITMAP
c0
60
30
00
60
60
60
60
60
60
60
60
ENDCHAR
STARTCHAR uni00EE
ENCODING 238
SWIDTH 250 0
DWIDTH 5 0
BBX 5 11 0 0
BITMAP
70
d8
00
60
60
60
60
60
60
60
60
ENDCHAR
STARTCHAR uni00EF
ENCODING 239
SWIDTH 250 0
DWIDTH 5 0
BBX 5 11 0 0
BITMAP
d8
d8
00
60
60
60
60
60
60
60
60
ENDCHAR
STARTCHAR uni00F1
ENCODING 241
SWIDTH 563 0
DWIDTH 9 0
BBX 7 11 1 0
BITMAP
34
58
00
dc
e6
c6
c6
c6
c6
c6
c6
ENDCHAR
STARTCHAR uni00F3
ENCODING 243
SWIDTH 500 0
DWIDTH 9 0
BBX 7 12 1 0
BITMAP
0c
18
30
00
38
6c
c6
c6
c6
c6
6c
38
ENDCHAR
STARTCHAR uni00F2
ENCODING 242
SWIDTH 500 0
DWIDTH 9 0
BBX 7 12 1 0
BITMAP
60
30
18
00
38
6c
c6
c6
c6
c6
6c
38
ENDCHAR
STARTCHAR uni00F4
ENCODING 244
SWIDTH 500 0
DWIDTH 9 0
BBX 7 11 1 0
BITMAP
38
6c
00
38
6c
c6
c6
c6
c6
6c
38
ENDCHAR
STARTCHAR uni00F6
ENCODING 246
SWIDTH 500 0
DWIDTH 9 0
BBX 7 11 1 0
BITMAP
6c
6c
00
38
6c
c6
c6
c6
c6
6c
38
ENDCHAR
STARTCHAR uni00F5
ENCODING 245
SWIDTH 500 0
DWIDTH 9 0
BBX 7 11 1 0
BITMAP
34
58
00
38
6c
c6
c6
c6
c6
6c
38
ENDCHAR
STARTCHAR uni00FA
ENCODING 250
SWIDTH 563 0
DWIDTH 9 0
BBX 7 12 1 0
BITMAP
0c
18
30
00
c6
c6
c6
c6
c6
c6
ce
76
ENDCHAR
STARTCHAR uni00F9
ENCODING 249
SWIDTH 563 0
DWIDTH 9 0
BBX 7 12 1 0
BITMAP
60
30
18
00
c6
c6
c6
c6
c6
c6
ce
76
ENDCHAR
STARTCHAR uni00FB
ENCODING 251
SWIDTH 563 0
DWIDTH 9 0
BBX 7 11 1 0
BITMAP
38
6c
00
c6
c6
c6
c6
c6
c6
ce
76
ENDCHAR
STARTCHAR uni00FC
ENCODING 252
SWIDTH 563 0
DWIDTH 9 0
BBX 7 11 1 0
BITMAP
6c
6c
00
c6
c6
c6
c6
c6
c6
ce
76
ENDCHAR
STARTCHAR uni2020
ENCODING 8224
SWIDTH 563 0
DWIDTH 10 0
BBX 8 14 1 -3
BITMAP
18
18
18
ff
18
18
18
18
18
18
18
18
18
18
ENDCHAR
STARTCHAR uni00B0
ENCODING 176
SWIDTH 563 0
DWIDTH 8 0
BBX 4 4 2 7
BITMAP
60
90
90
60
ENDCHAR
STARTCHAR uni00A2
ENCODING 162
SWIDTH 563 0
DWIDTH 9 0
BBX 7 11 1 0
BITMAP
10
10
7c
d6
d0
d0
d0
d6
7c
10
10
ENDCHAR
STARTCHAR uni00A3
ENCODING 163
SWIDTH 563 0
DWIDTH 9 0
BBX 9 11 0 0
BITMAP
0e00
1b00
3000
3000
3000
7c00
3000
3000
3000
3180
ff00
ENDCHAR
STARTCHAR uni00A7
ENCODING 167
SWIDTH 563 0
DWIDTH 9 0
BBX 7 14 1 -3
BITMAP
7c
c6
c0
f0
7c
ce
c6
e6
7c
1e
06
c6
c6
7c
ENDCHAR
STARTCHAR uni2022
ENCODING 8226
SWIDTH 688 0
DWIDTH 10 0
BBX 4 4 3 3
BITMAP
60
f0
f0
60
ENDCHAR
STARTCHAR uni00B6
ENCODING 182
SWIDTH 563 0
DWIDTH 10 0
BBX 8 14 1 -3
BITMAP
7f
8a
8a
8a
8a
7a
0a
0a
0a
0a
0a
0a
0a
0a
ENDCHAR
STARTCHAR uni00DF
ENCODING 223
SWIDTH 563 0
DWIDTH 9 0
BBX 8 12 0 -1
BITMAP
3c
66
66
66
e8
6e
67
63
63
63
6e
60
ENDCHAR
STARTCHAR uni00AE
ENCODING 174
SWIDTH 750 0
DWIDTH 13 0
BBX 11 11 1 0
BITMAP
1f00
2080
5e40
9120
9120
9e20
9220
9120
5140
2080
1f00
ENDCHAR
STARTCHAR uni00A9
ENCODING 169
SWIDTH 750 0
DWIDTH 13 0
BBX 11 11 1 0
BITMAP
1f00
2080
4e40
9120
9020
9020
9020
9120
4e40
2080
1f00
ENDCHAR
STARTCHAR uni2122
ENCODING 8482
SWIDTH 750 0
DWIDTH 13 0
BBX 12 6 1 5
BITMAP
fb30
2330
2330
22d0
22d0
22d0
ENDCHAR
STARTCHAR uni00B4
ENCODING 180
SWIDTH 500 0
DWIDTH 8 0
BBX 4 3 2 9
BITMAP
30
60
c0
ENDCHAR
STARTCHAR uni00A8
ENCODING 168
SWIDTH 500 0
DWIDTH 8 0
BBX 5 2 1 9
BITMAP
d8
d8
ENDCHAR
STARTCHAR uni2260
ENCODING 8800
SWIDTH 563 0
DWIDTH 9 0
BBX 7 7 1 2
BITMAP
04
08
fe
10
fe
20
40
ENDCHAR
STARTCHAR uni00C6
ENCODING 198
SWIDTH 875 0
DWIDTH 14 0
BBX 13 11 0 0
BITMAP
07f8
0700
0b00
0b00
1300
13f0
3f00
2300
4300
4300
83f8
ENDCHAR
STARTCHAR uni00D8
ENCODING 216
SWIDTH 625 0
DWIDTH 10 0
BBX 8 11 1 0
BITMAP
3d
66
c3
c7
cb
d3
d3
e3
c3
66
bc
ENDCHAR
STARTCHAR uni221E
ENCODING 8734
SWIDTH 688 0
DWIDTH 11 0
BBX 9 5 1 3
BITMAP
6300
9480
8880
9480
6300
ENDCHAR
STARTCHAR uni00B1
ENCODING 177
SWIDTH 563 0
DWIDTH 9 0
BBX 7 9 1 0
BITMAP
10
10
10
fe
10
10
10
00
fe
ENDCHAR
STARTCHAR uni2264
ENCODING 8804
SWIDTH 563 0
DWIDTH 9 0
BBX 7 10 1 0
BITMAP
06
1c
70
c0
70
1c
06
00
00
fe
ENDCHAR
STARTCHAR uni2265
ENCODING 8805
SWIDTH 563 0
DWIDTH 9 0
BBX 7 10 1 0
BITMAP
c0
70
1c
06
1c
70
c0
00
00
fe
ENDCHAR
STARTCHAR uni00A5
ENCODING 165
SWIDTH 563 0
DWIDTH 9 0
BBX 8 11 1 0
BITMAP
c1
62
62
34
ff
18
18
ff
18
18
18
ENDCHAR
STARTCHAR uni00B5
ENCODING 181
SWIDTH 563 0
DWIDTH 9 0
BBX 7 11 1 -3
BITMAP
c6
c6
c6
c6
c6
c6
ee
d6
c0
c0
c0
ENDCHAR
STARTCHAR uni2202
ENCODING 8706
SWIDTH 500 0
DWIDTH 9 0
BBX 8 12 1 0
BITMAP
1c
36
63
03
0f
3b
63
c3
c6
c6
cc
78
ENDCHAR
STARTCHAR uni2211
ENCODING 8721
SWIDTH 688 0
DWIDTH 11 0
BBX 9 15 1 -3
BITMAP
ff80
c000
6000
3000
1800
0c00
0600
0300
0600
0c00
1800
3000
6000
c000
ff80
ENDCHAR
STARTCHAR uni220F
ENCODING 8719
SWIDTH 813 0
DWIDTH 13 0
BBX 11 15 1 -3
BITMAP
ffe0
c060
c060
c060
c060
c060
c060
c060
c060
c060
c060
c060
c060
c060
c060
ENDCHAR
STARTCHAR uniF006
ENCODING 61446
SWIDTH 563 0
DWIDTH 9 0
BBX 9 8 0 0
BITMAP
ff80
6300
6300
6300
6300
6300
6300
6300
ENDCHAR
STARTCHAR uni222B
ENCODING 8747
SWIDTH 250 0
DWIDTH 5 0
BBX 5 16 0 -3
BITMAP
18
28
20
20
20
20
20
20
20
20
20
20
20
20
a0
c0
ENDCHAR
STARTCHAR uni00AA
ENCODING 170
SWIDTH 375 0
DWIDTH 8 0
BBX 6 5 1 6
BITMAP
78
0c
7c
cc
7c
ENDCHAR
STARTCHAR uni00BA
ENCODING 186
SWIDTH 375 0
DWIDTH 8 0
BBX 6 5 1 6
BITMAP
78
cc
cc
cc
78
ENDCHAR
STARTCHAR uni2126
ENCODING 8486
SWIDTH 750 0
DWIDTH 12 0
BBX 10 12 1 0
BITMAP
3f00
6180
c0c0
c0c0
c0c0
c0c0
c0c0
c0c0
c0c0
6180
3300
f3c0
ENDCHAR
STARTCHAR uni00E6
ENCODING 230
SWIDTH 875 0
DWIDTH 14 0
BBX 12 8 1 0
BITMAP
7de0
c730
0630
7ff0
c600
c600
cf30
71e0
ENDCHAR
STARTCHAR uni00F8
ENCODING 248
SWIDTH 500 0
DWIDTH 9 0
BBX 7 8 1 0
BITMAP
3a
44
ce
d6
e6
c6
44
b8
ENDCHAR
STARTCHAR uni00BF
ENCODING 191
SWIDTH 500 0
DWIDTH 8 0
BBX 6 11 1 -3
BITMAP
30
30
00
30
30
70
e0
c0
cc
cc
78
ENDCHAR
STARTCHAR uni00A1
ENCODING 161
SWIDTH 250 0
DWIDTH 4 0
BBX 2 11 1 -3
BITMAP
c0
c0
00
c0
c0
c0
c0
c0
c0
c0
c0
ENDCHAR
STARTCHAR uni00AC
ENCODING 172
SWIDTH 563 0
DWIDTH 9 0
BBX 7 4 1 2
BITMAP
fe
02
02
02
ENDCHAR
STARTCHAR uni221A
ENCODING 8730
SWIDTH 563 0
DWIDTH 9 0
BBX 8 14 0 -1
BITMAP
01
01
01
01
02
e2
22
32
12
1a
0c
0c
04
04
ENDCHAR
STARTCHAR uni0192
ENCODING 402
SWIDTH 563 0
DWIDTH 9 0
BBX 8 14 1 -2
BITMAP
07
0c
0c
3f
0c
18
18
18
18
30
30
30
30
e0
ENDCHAR
STARTCHAR uni2248
ENCODING 8776
SWIDTH 563 0
DWIDTH 10 0
BBX 8 5 1 2
BITMAP
73
ce
00
73
ce
ENDCHAR
STARTCHAR uni2206
ENCODING 8710
SWIDTH 625 0
DWIDTH 11 0
BBX 11 11 0 0
BITMAP
0400
0600
0e00
0b00
1b00
1180
3180
20c0
60c0
4060
ffe0
ENDCHAR
STARTCHAR uni00AB
ENCODING 171
SWIDTH 313 0
DWIDTH 7 0
BBX 6 5 0 2
BITMAP
24
48
d8
48
24
ENDCHAR
STARTCHAR uni00BB
ENCODING 187
SWIDTH 313 0
DWIDTH 7 0
BBX 6 5 1 2
BITMAP
90
48
6c
48
90
ENDCHAR
STARTCHAR uni2026
ENCODING 8230
SWIDTH 750 0
DWIDTH 12 0
BBX 10 2 1 0
BITMAP
ccc0
ccc0
ENDCHAR
STARTCHAR uni00A0
ENCODING 160
SWIDTH 250 0
DWIDTH 4 0
BBX 0 0 0 0
BITMAP
ENDCHAR
STARTCHAR uni00C0
ENCODING 192
SWIDTH 625 0
DWIDTH 9 0
BBX 9 13 0 0
BITMAP
1800
0c00
0000
0c00
1c00
1600
1600
3600
2300
3f00
6300
4180
c180
ENDCHAR
STARTCHAR uni00C3
ENCODING 195
SWIDTH 625 0
DWIDTH 9 0
BBX 9 13 0 0
BITMAP
0d00
1600
0000
0c00
1c00
1600
1600
3600
2300
3f00
6300
4180
c180
ENDCHAR
STARTCHAR uni00D5
ENCODING 213
SWIDTH 625 0
DWIDTH 10 0
BBX 8 13 1 0
BITMAP
1a
2c
00
3c
66
c3
c3
c3
c3
c3
c3
66
3c
ENDCHAR
STARTCHAR uni0152
ENCODING 338
SWIDTH 938 0
DWIDTH 15 0
BBX 13 11 1 0
BITMAP
3bf8
6700
c300
c300
c300
c3f0
c300
c300
c300
6700
3bf8
ENDCHAR
STARTCHAR uni0153
ENCODING 339
SWIDTH 813 0
DWIDTH 14 0
BBX 12 8 1 0
BITMAP
39e0
6f30
c630
c7f0
c600
c600
6f30
39e0
ENDCHAR
STARTCHAR uni2013
ENCODING 8211
SWIDTH 563 0
DWIDTH 9 0
BBX 7 1 1 3
BITMAP
fe
ENDCHAR
STARTCHAR uni2014
ENCODING 8212
SWIDTH 688 0
DWIDTH 11 0
BBX 11 1 0 3
BITMAP
ffe0
ENDCHAR
STARTCHAR uni201C
ENCODING 8220
SWIDTH 375 0
DWIDTH 7 0
BBX 5 4 1 7
BITMAP
48
90
d8
d8
ENDCHAR
STARTCHAR uni201D
ENCODING 8221
SWIDTH 375 0
DWIDTH 7 0
BBX 5 4 1 7
BITMAP
d8
d8
48
90
ENDCHAR
STARTCHAR uni2018
ENCODING 8216
SWIDTH 250 0
DWIDTH 4 0
BBX 2 4 1 7
BITMAP
40
80
c0
c0
ENDCHAR
STARTCHAR uni2019
ENCODING 8217
SWIDTH 250 0
DWIDTH 4 0
BBX 2 4 1 7
BITMAP
c0
c0
40
80
ENDCHAR
STARTCHAR uni00F7
ENCODING 247
SWIDTH 563 0
DWIDTH 9 0
BBX 7 7 1 2
BITMAP
10
10
00
fe
00
10
10
ENDCHAR
STARTCHAR uni25CA
ENCODING 9674
SWIDTH 500 0
DWIDTH 9 0
BBX 9 15 0 -3
BITMAP
0800
1c00
1400
3600
2200
6300
4100
c180
4100
6300
2200
3600
1400
1c00
0800
ENDCHAR
STARTCHAR uni00FF
ENCODING 255
SWIDTH 438 0
DWIDTH 7 0
BBX 7 14 0 -3
BITMAP
6c
6c
00
c2
c6
64
64
2c
38
38
18
10
30
60
ENDCHAR
STARTCHAR uni0178
ENCODING 376
SWIDTH 563 0
DWIDTH 8 0
BBX 8 13 0 0
BITMAP
36
36
00
c3
62
66
34
3c
18
18
18
18
18
ENDCHAR
STARTCHAR uni2215
ENCODING 8725
SWIDTH 125 0
DWIDTH 7 0
BBX 7 11 0 0
BITMAP
06
04
0c
08
18
10
30
20
60
40
c0
ENDCHAR
STARTCHAR uni20AC
ENCODING 8364
SWIDTH 563 0
DWIDTH 9 0
BBX 8 11 0 0
BITMAP
1e
33
63
60
f8
60
f8
60
63
33
1e
ENDCHAR
STARTCHAR uni2039
ENCODING 8249
SWIDTH 188 0
DWIDTH 5 0
BBX 3 5 1 2
BITMAP
20
40
c0
40
20
ENDCHAR
STARTCHAR uni203A
ENCODING 8250
SWIDTH 188 0
DWIDTH 5 0
BBX 3 5 1 2
BITMAP
80
40
60
40
80
ENDCHAR
STARTCHAR uniFB01
ENCODING 64257
SWIDTH 563 0
DWIDTH 9 0
BBX 8 11 0 0
BITMAP
3b
63
60
fb
63
63
63
63
63
63
63
ENDCHAR
STARTCHAR uniFB02
ENCODING 64258
SWIDTH 563 0
DWIDTH 9 0
BBX 8 11 0 0
BITMAP
3b
63
63
fb
63
63
63
63
63
63
63
ENDCHAR
STARTCHAR uni2021
ENCODING 8225
SWIDTH 563 0
DWIDTH 10 0
BBX 8 14 1 -3
BITMAP
18
18
18
ff
18
18
18
18
18
18
ff
18
18
18
ENDCHAR
STARTCHAR uni2219
ENCODING 8729
SWIDTH 125 0
DWIDTH 4 0
BBX 2 2 1 3
BITMAP
c0
c0
ENDCHAR
STARTCHAR uni201A
ENCODING 8218
SWIDTH 250 0
DWIDTH 4 0
BBX 2 4 1 -2
BITMAP
c0
c0
40
80
ENDCHAR
STARTCHAR uni201E
ENCODING 8222
SWIDTH 375 0
DWIDTH 7 0
BBX 5 4 1 -2
BITMAP
d8
d8
48
90
ENDCHAR
STARTCHAR uni2030
ENCODING 8240
SWIDTH 1125 0
DWIDTH 20 0
BBX 18 11 1 0
BITMAP
708000
d98000
d90000
db0000
da0000
76e380
05b6c0
0db6c0
09b6c0
19b6c0
10e380
ENDCHAR
STARTCHAR uni00C2
ENCODING 194
SWIDTH 625 0
DWIDTH 9 0
BBX 9 13 0 0
BITMAP
0e00
1b00
0000
0c00
1c00
1600
1600
3600
2300
3f00
6300
4180
c180
ENDCHAR
STARTCHAR uni00CA
ENCODING 202
SWIDTH 563 0
DWIDTH 9 0
BBX 7 13 1 0
BITMAP
38
6c
00
fe
c0
c0
c0
fc
c0
c0
c0
c0
fe
ENDCHAR
STARTCHAR uni00C1
ENCODING 193
SWIDTH 625 0
DWIDTH 9 0
BBX 9 13 0 0
BITMAP
0600
0c00
0000
0c00
1c00
1600
1600
3600
2300
3f00
6300
4180
c180
ENDCHAR
STARTCHAR uni00CB
ENCODING 203
SWIDTH 563 0
DWIDTH 9 0
BBX 7 13 1 0
BITMAP
6c
6c
00
fe
c0
c0
c0
fc
c0
c0
c0
c0
fe
ENDCHAR
STARTCHAR uni00C8
ENCODING 200
SWIDTH 563 0
DWIDTH 9 0
BBX 7 13 1 0
BITMAP
30
18
00
fe
c0
c0
c0
fc
c0
c0
c0
c0
fe
ENDCHAR
STARTCHAR uni00CD
ENCODING 205
SWIDTH 250 0
DWIDTH 4 0
BBX 3 13 1 0
BITMAP
60
c0
00
c0
c0
c0
c0
c0
c0
c0
c0
c0
c0
ENDCHAR
STARTCHAR uni00CE
ENCODING 206
SWIDTH 250 0
DWIDTH 5 0
BBX 5 13 0 0
BITMAP
70
d8
00
60
60
60
60
60
60
60
60
60
60
ENDCHAR
STARTCHAR uni00CF
ENCODING 207
SWIDTH 250 0
DWIDTH 5 0
BBX 5 13 0 0
BITMAP
d8
d8
00
60
60
60
60
60
60
60
60
60
60
ENDCHAR
STARTCHAR uni00CC
ENCODING 204
SWIDTH 250 0
DWIDTH 4 0
BBX 3 13 0 0
BITMAP
c0
60
00
60
60
60
60
60
60
60
60
60
60
ENDCHAR
STARTCHAR uni00D3
ENCODING 211
SWIDTH 625 0
DWIDTH 10 0
BBX 8 13 1 0
BITMAP
0c
18
00
3c
66
c3
c3
c3
c3
c3
c3
66
3c
ENDCHAR
STARTCHAR uni00D4
ENCODING 212
SWIDTH 625 0
DWIDTH 10 0
BBX 8 13 1 0
BITMAP
1c
36
00
3c
66
c3
c3
c3
c3
c3
c3
66
3c
ENDCHAR
STARTCHAR uni00D2
ENCODING 210
SWIDTH 625 0
DWIDTH 10 0
BBX 8 13 1 0
BITMAP
18
0c
00
3c
66
c3
c3
c3
c3
c3
c3
66
3c
ENDCHAR
STARTCHAR uni00DA
ENCODING 218
SWIDTH 625 0
DWIDTH 10 0
BBX 8 13 1 0
BITMAP
0c
18
00
c1
c1
c1
c1
c1
c1
c1
c1
62
3c
ENDCHAR
STARTCHAR uni00DB
ENCODING 219
SWIDTH 625 0
DWIDTH 10 0
BBX 8 13 1 0
BITMAP
1c
36
00
c1
c1
c1
c1
c1
c1
c1
c1
62
3c
ENDCHAR
STARTCHAR uni00D9
ENCODING 217
SWIDTH 625 0
DWIDTH 10 0
BBX 8 13 1 0
BITMAP
18
0c
00
c1
c1
c1
c1
c1
c1
c1
c1
62
3c
ENDCHAR
STARTCHAR uni0131
ENCODING 305
SWIDTH 250 0
DWIDTH 4 0
BBX 2 8 1 0
BITMAP
c0
c0
c0
c0
c0
c0
c0
c0
ENDCHAR
STARTCHAR uni02C6
ENCODING 710
SWIDTH 500 0
DWIDTH 8 0
BBX 5 2 2 9
BITMAP
70
d8
ENDCHAR
STARTCHAR uni02DC
ENCODING 732
SWIDTH 500 0
DWIDTH 8 0
BBX 5 2 1 9
BITMAP
68
b0
ENDCHAR
STARTCHAR uni02C9
ENCODING 713
SWIDTH 500 0
DWIDTH 8 0
BBX 4 1 2 10
BITMAP
f0
ENDCHAR
STARTCHAR uni02D8
ENCODING 728
SWIDTH 500 0
DWIDTH 8 0
BBX 6 2 1 9
BITMAP
cc
78
ENDCHAR
STARTCHAR uni02D9
ENCODING 729
SWIDTH 500 0
DWIDTH 8 0
BBX 2 2 3 9
BITMAP
c0
c0
ENDCHAR
STARTCHAR uni02DA
ENCODING 730
SWIDTH 500 0
DWIDTH 8 0
BBX 4 4 2 9
BITMAP
60
90
90
60
ENDCHAR
STARTCHAR uni00B8
ENCODING 184
SWIDTH 500 0
DWIDTH 8 0
BBX 3 3 2 -3
BITMAP
40
20
c0
ENDCHAR
STARTCHAR uni02DD
ENCODING 733
SWIDTH 500 0
DWIDTH 8 0
BBX 6 3 1 9
BITMAP
6c
d8
90
ENDCHAR
STARTCHAR uni02DB
ENCODING 731
SWIDTH 500 0
DWIDTH 8 0
BBX 3 3 5 -3
BITMAP
80
80
60
ENDCHAR
STARTCHAR uni02C7
ENCODING 711
SWIDTH 500 0
DWIDTH 8 0
BBX 5 2 2 9
BITMAP
d8
70
ENDCHAR
STARTCHAR uni0141
ENCODING 321
SWIDTH 500 0
DWIDTH 8 0
BBX 8 11 0 0
BITMAP
60
60
60
68
70
60
e0
60
60
60
7f
ENDCHAR
STARTCHAR uni0142
ENCODING 322
SWIDTH 250 0
DWIDTH 4 0
BBX 4 11 0 0
BITMAP
60
60
60
60
70
60
e0
60
60
60
60
ENDCHAR
STARTCHAR uni0160
ENCODING 352
SWIDTH 563 0
DWIDTH 9 0
BBX 8 13 0 0
BITMAP
36
1c
00
3e
63
60
70
3c
0e
07
c3
67
3e
ENDCHAR
STARTCHAR uni0161
ENCODING 353
SWIDTH 438 0
DWIDTH 8 0
BBX 6 11 1 0
BITMAP
6c
38
00
78
cc
c0
f0
3c
0c
cc
78
ENDCHAR
STARTCHAR uni017D
ENCODING 381
SWIDTH 563 0
DWIDTH 10 0
BBX 8 13 1 0
BITMAP
36
1c
00
ff
06
0c
0c
18
30
30
60
c0
ff
ENDCHAR
STARTCHAR uni017E
ENCODING 382
SWIDTH 438 0
DWIDTH 8 0
BBX 6 11 1 0
BITMAP
d8
70
00
fc
0c
18
30
30
60
c0
fc
ENDCHAR
STARTCHAR uni00A6
ENCODING 166
SWIDTH 500 0
DWIDTH 8 0
BBX 2 14 3 -3
BITMAP
c0
c0
c0
c0
c0
c0
00
00
c0
c0
c0
c0
c0
c0
ENDCHAR
STARTCHAR uni00D0
ENCODING 208
SWIDTH 625 0
DWIDTH 10 0
BBX 9 11 0 0
BITMAP
7e00
6300
6180
6180
6180
fd80
6180
6180
6180
6300
7e00
ENDCHAR
STARTCHAR uni00F0
ENCODING 240
SWIDTH 500 0
DWIDTH 9 0
BBX 7 12 1 0
BITMAP
64
38
58
0c
3c
6e
c6
c6
c6
c6
6c
38
ENDCHAR
STARTCHAR uni00DD
ENCODING 221
SWIDTH 563 0
DWIDTH 8 0
BBX 8 13 0 0
BITMAP
0c
18
00
c3
62
66
34
3c
18
18
18
18
18
ENDCHAR
STARTCHAR uni00FD
ENCODING 253
SWIDTH 438 0
DWIDTH 7 0
BBX 7 15 0 -3
BITMAP
06
0c
18
00
c2
c6
64
64
2c
38
38
18
10
30
60
ENDCHAR
STARTCHAR uni00DE
ENCODING 222
SWIDTH 625 0
DWIDTH 10 0
BBX 8 11 1 0
BITMAP
c0
c0
fc
c6
c3
c3
c6
fc
c0
c0
c0
ENDCHAR
STARTCHAR uni00FE
ENCODING 254
SWIDTH 563 0
DWIDTH 9 0
BBX 7 14 1 -3
BITMAP
c0
c0
c0
d8
ec
c6
c6
c6
c6
ec
d8
c0
c0
c0
ENDCHAR
STARTCHAR uni2212
ENCODING 8722
SWIDTH 563 0
DWIDTH 9 0
BBX 7 1 1 5
BITMAP
fe
ENDCHAR
STARTCHAR uni00D7
ENCODING 215
SWIDTH 563 0
DWIDTH 9 0
BBX 7 7 1 2
BITMAP
c6
6c
38
10
38
6c
c6
ENDCHAR
STARTCHAR uni00B9
ENCODING 185
SWIDTH 375 0
DWIDTH 7 0
BBX 4 7 1 4
BITMAP
20
e0
60
60
60
60
f0
ENDCHAR
STARTCHAR uni00B2
ENCODING 178
SWIDTH 375 0
DWIDTH 7 0
BBX 5 7 1 4
BITMAP
70
d8
18
30
60
c0
f8
ENDCHAR
STARTCHAR uni00B3
ENCODING 179
SWIDTH 375 0
DWIDTH 7 0
BBX 5 7 1 4
BITMAP
70
d8
18
30
18
d8
70
ENDCHAR
STARTCHAR uni00BD
ENCODING 189
SWIDTH 875 0
DWIDTH 15 0
BBX 13 11 1 0
BITMAP
2060
e0c0
6080
6180
6370
62d8
f618
0c30
0860
18c0
30f8
ENDCHAR
STARTCHAR uni00BC
ENCODING 188
SWIDTH 875 0
DWIDTH 15 0
BBX 13 11 1 0
BITMAP
2060
e0c0
6080
6180
6330
6270
f6b0
0d30
09f8
1830
3030
ENDCHAR
STARTCHAR uni00BE
ENCODING 190
SWIDTH 875 0
DWIDTH 15 0
BBX 13 11 1 0
BITMAP
7060
d8c0
1880
3180
1b30
da70
76b0
0d30
09f8
1830
3030
ENDCHAR
STARTCHAR uni20A3
ENCODING 8355
SWIDTH 500 0
DWIDTH 9 0
BBX 8 11 0 0
BITMAP
7f
60
60
60
60
7e
60
60
f8
60
60
ENDCHAR
STARTCHAR uni011E
ENCODING 286
SWIDTH 625 0
DWIDTH 10 0
BBX 8 13 1 0
BITMAP
66
3c
00
3e
63
c3
c0
c0
cf
c3
c3
67
3d
ENDCHAR
STARTCHAR uni011F
ENCODING 287
SWIDTH 500 0
DWIDTH 8 0
BBX 8 15 0 -3
BITMAP
66
3c
00
07
3c
66
66
66
3c
60
7e
7f
c3
c2
7c
ENDCHAR
STARTCHAR uni0130
ENCODING 304
SWIDTH 250 0
DWIDTH 4 0
BBX 2 13 1 0
BITMAP
c0
c0
00
c0
c0
c0
c0
c0
c0
c0
c0
c0
c0
ENDCHAR
STARTCHAR uni015E
ENCODING 350
SWIDTH 563 0
DWIDTH 9 0
BBX 8 14 0 -3
BITMAP
3e
63
60
70
3c
1e
07
03
c3
67
3e
08
04
18
ENDCHAR
STARTCHAR uni015F
ENCODING 351
SWIDTH 438 0
DWIDTH 8 0
BBX 6 11 1 -3
BITMAP
78
cc
c0
f0
3c
0c
cc
78
10
08
30
ENDCHAR
STARTCHAR uni0106
ENCODING 262
SWIDTH 563 0
DWIDTH 10 0
BBX 8 13 1 0
BITMAP
0c
18
00
3c
66
c3
c3
c0
c0
c3
c3
66
3c
ENDCHAR
STARTCHAR uni0107
ENCODING 263
SWIDTH 438 0
DWIDTH 9 0
BBX 7 12 1 0
BITMAP
0c
18
30
00
38
6c
c6
c0
c0
c6
6c
38
ENDCHAR
STARTCHAR uni010C
ENCODING 268
SWIDTH 563 0
DWIDTH 10 0
BBX 8 13 1 0
BITMAP
6c
38
00
3c
66
c3
c3
c0
c0
c3
c3
66
3c
ENDCHAR
STARTCHAR uni010D
ENCODING 269
SWIDTH 438 0
DWIDTH 9 0
BBX 7 11 1 0
BITMAP
6c
38
00
38
6c
c6
c0
c0
c6
6c
38
ENDCHAR
STARTCHAR uni0111
ENCODING 273
SWIDTH 563 0
DWIDTH 9 0
BBX 8 11 1 0
BITMAP
06
1f
06
36
6e
c6
c6
c6
c6
6e
36
ENDCHAR
STARTCHAR uni00AD
ENCODING 173
SWIDTH 250 0
DWIDTH 4 0
BBX 4 1 0 3
BITMAP
f0
ENDCHAR
STARTCHAR uni00AF
ENCODING 175
SWIDTH 500 0
DWIDTH 8 0
BBX 8 2 0 11
BITMAP
ff
ff
ENDCHAR
STARTCHAR uni00B7
ENCODING 183
SWIDTH 125 0
DWIDTH 4 0
BBX 2 2 1 3
BITMAP
c0
c0
ENDCHAR
STARTCHAR uni0100
ENCODING 256
SWIDTH 625 0
DWIDTH 9 0
BBX 9 13 0 0
BITMAP
1e00
0000
0000
0c00
1c00
1600
1600
3600
2300
3f00
6300
4180
c180
ENDCHAR
STARTCHAR uni0101
ENCODING 257
SWIDTH 563 0
DWIDTH 9 0
BBX 7 11 1 0
BITMAP
3c
00
00
7c
c6
06
7e
c6
c6
ce
76
ENDCHAR
STARTCHAR uni0102
ENCODING 258
SWIDTH 625 0
DWIDTH 9 0
BBX 9 13 0 0
BITMAP
3300
1e00
0000
0c00
1c00
1600
1600
3600
2300
3f00
6300
4180
c180
ENDCHAR
STARTCHAR uni0103
ENCODING 259
SWIDTH 563 0
DWIDTH 9 0
BBX 7 11 1 0
BITMAP
66
3c
00
7c
c6
06
7e
c6
c6
ce
76
ENDCHAR
STARTCHAR uni0104
ENCODING 260
SWIDTH 625 0
DWIDTH 9 0
BBX 9 14 0 -3
BITMAP
0c00
1c00
1600
1600
3600
2300
2300
7f00
4180
4180
c180
0200
0200
0180
ENDCHAR
STARTCHAR uni0105
ENCODING 261
SWIDTH 563 0
DWIDTH 9 0
BBX 8 11 1 -3
BITMAP
7c
c6
06
7e
c6
c6
ce
76
04
04
03
ENDCHAR
STARTCHAR uni0108
ENCODING 264
SWIDTH 563 0
DWIDTH 10 0
BBX 8 13 1 0
BITMAP
1c
36
00
3c
66
c3
c3
c0
c0
c3
c3
66
3c
ENDCHAR
STARTCHAR uni0109
ENCODING 265
SWIDTH 438 0
DWIDTH 9 0
BBX 7 11 1 0
BITMAP
38
6c
00
38
6c
c6
c0
c0
c6
6c
38
ENDCHAR
STARTCHAR uni010A
ENCODING 266
SWIDTH 563 0
DWIDTH 10 0
BBX 8 13 1 0
BITMAP
18
18
00
3c
66
c3
c3
c0
c0
c3
c3
66
3c
ENDCHAR
STARTCHAR uni010B
ENCODING 267
SWIDTH 438 0
DWIDTH 9 0
BBX 7 11 1 0
BITMAP
18
18
00
38
6c
c6
c0
c0
c6
6c
38
ENDCHAR
STARTCHAR uni010E
ENCODING 270
SWIDTH 625 0
DWIDTH 10 0
BBX 8 13 1 0
BITMAP
6c
38
00
fc
c6
c3
c3
c3
c3
c3
c3
c6
fc
ENDCHAR
STARTCHAR uni010F
ENCODING 271
SWIDTH 625 0
DWIDTH 11 0
BBX 10 11 1 0
BITMAP
06c0
06c0
0680
3600
6e00
c600
c600
c600
c600
6e00
3600
ENDCHAR
STARTCHAR uni0110
ENCODING 272
SWIDTH 625 0
DWIDTH 10 0
BBX 9 11 0 0
BITMAP
7e00
6300
6180
6180
6180
fd80
6180
6180
6180
6300
7e00
ENDCHAR
STARTCHAR uni0112
ENCODING 274
SWIDTH 563 0
DWIDTH 9 0
BBX 7 13 1 0
BITMAP
3c
00
00
fe
c0
c0
c0
fc
c0
c0
c0
c0
fe
ENDCHAR
STARTCHAR uni0113
ENCODING 275
SWIDTH 500 0
DWIDTH 9 0
BBX 7 11 1 0
BITMAP
3c
00
00
3c
66
c6
fe
c0
c0
66
3c
ENDCHAR
STARTCHAR uni0114
ENCODING 276
SWIDTH 563 0
DWIDTH 9 0
BBX 7 13 1 0
BITMAP
cc
78
00
fe
c0
c0
c0
fc
c0
c0
c0
c0
fe
ENDCHAR
STARTCHAR uni0115
ENCODING 277
SWIDTH 500 0
DWIDTH 9 0
BBX 7 11 1 0
BITMAP
66
3c
00
3c
66
c6
fe
c0
c0
66
3c
ENDCHAR
STARTCHAR uni0116
ENCODING 278
SWIDTH 563 0
DWIDTH 9 0
BBX 7 13 1 0
BITMAP
18
18
00
fe
c0
c0
c0
fc
c0
c0
c0
c0
fe
ENDCHAR
STARTCHAR uni0117
ENCODING 279
SWIDTH 500 0
DWIDTH 9 0
BBX 7 11 1 0
BITMAP
18
18
00
3c
66
c6
fe
c0
c0
66
3c
ENDCHAR
STARTCHAR uni0118
ENCODING 280
SWIDTH 563 0
DWIDTH 9 0
BBX 8 14 1 -3
BITMAP
fe
c0
c0
c0
c0
fc
c0
c0
c0
c0
fe
04
04
03
ENDCHAR
STARTCHAR uni0119
ENCODING 281
SWIDTH 500 0
DWIDTH 9 0
BBX 7 11 1 -3
BITMAP
3c
66
c6
fe
c0
c0
66
3c
08
08
06
ENDCHAR
STARTCHAR uni011A
ENCODING 282
SWIDTH 563 0
DWIDTH 9 0
BBX 7 13 1 0
BITMAP
6c
38
00
fe
c0
c0
c0
fc
c0
c0
c0
c0
fe
ENDCHAR
STARTCHAR uni011B
ENCODING 283
SWIDTH 500 0
DWIDTH 9 0
BBX 7 11 1 0
BITMAP
6c
38
00
3c
66
c6
fe
c0
c0
66
3c
ENDCHAR
STARTCHAR uni011C
ENCODING 284
SWIDTH 625 0
DWIDTH 10 0
BBX 8 13 1 0
BITMAP
1c
36
00
3e
63
c3
c0
c0
cf
c3
c3
67
3d
ENDCHAR
STARTCHAR uni011D
ENCODING 285
SWIDTH 500 0
DWIDTH 8 0
BBX 8 15 0 -3
BITMAP
38
6c
00
07
3c
66
66
66
3c
60
7e
7f
c3
c2
7c
ENDCHAR
STARTCHAR uni0120
ENCODING 288
SWIDTH 625 0
DWIDTH 10 0
BBX 8 13 1 0
BITMAP
18
18
00
3e
63
c3
c0
c0
cf
c3
c3
67
3d
ENDCHAR
STARTCHAR uni0121
ENCODING 289
SWIDTH 500 0
DWIDTH 8 0
BBX 8 14 0 -3
BITMAP
18
18
07
3c
66
66
66
3c
60
7e
7f
c3
c2
7c
ENDCHAR
STARTCHAR uni0122
ENCODING 290
SWIDTH 625 0
DWIDTH 10 0
BBX 8 14 1 -3
BITMAP
3c
66
c3
c3
c0
c0
cf
c3
c3
67
3d
00
18
30
ENDCHAR
STARTCHAR uni0123
ENCODING 291
SWIDTH 500 0
DWIDTH 8 0
BBX 8 15 0 -3
BITMAP
08
18
18
07
3c
66
66
66
3c
60
7e
7f
c3
c2
7c
ENDCHAR
STARTCHAR uni0124
ENCODING 292
SWIDTH 625 0
DWIDTH 10 0
BBX 8 13 1 0
BITMAP
1c
36
00
c3
c3
c3
c3
ff
c3
c3
c3
c3
c3
ENDCHAR
STARTCHAR uni0125
ENCODING 293
SWIDTH 563 0
DWIDTH 9 0
BBX 8 13 0 0
BITMAP
70
d8
00
60
60
6e
73
63
63
63
63
63
63
ENDCHAR
STARTCHAR uni0126
ENCODING 294
SWIDTH 625 0
DWIDTH 10 0
BBX 10 11 0 0
BITMAP
6180
6180
ffc0
6180
6180
7f80
6180
6180
6180
6180
6180
ENDCHAR
STARTCHAR uni0127
ENCODING 295
SWIDTH 563 0
DWIDTH 9 0
BBX 8 11 0 0
BITMAP
60
fc
60
6e
73
63
63
63
63
63
63
ENDCHAR
STARTCHAR uni0128
ENCODING 296
SWIDTH 250 0
DWIDTH 5 0
BBX 5 13 0 0
BITMAP
68
b0
00
60
60
60
60
60
60
60
60
60
60
ENDCHAR
STARTCHAR uni0129
ENCODING 297
SWIDTH 250 0
DWIDTH 5 0
BBX 5 11 0 0
BITMAP
68
b0
00
60
60
60
60
60
60
60
60
ENDCHAR
STARTCHAR uni012A
ENCODING 298
SWIDTH 250 0
DWIDTH 4 0
BBX 4 13 0 0
BITMAP
f0
00
00
60
60
60
60
60
60
60
60
60
60
ENDCHAR
STARTCHAR uni012B
ENCODING 299
SWIDTH 250 0
DWIDTH 4 0
BBX 4 11 0 0
BITMAP
f0
00
00
60
60
60
60
60
60
60
60
ENDCHAR
STARTCHAR uni012C
ENCODING 300
SWIDTH 250 0
DWIDTH 6 0
BBX 6 13 0 0
BITMAP
cc
78
00
30
30
30
30
30
30
30
30
30
30
ENDCHAR
STARTCHAR uni012D
ENCODING 301
SWIDTH 250 0
DWIDTH 6 0
BBX 6 11 0 0
BITMAP
cc
78
00
30
30
30
30
30
30
30
30
ENDCHAR
STARTCHAR uni012E
ENCODING 302
SWIDTH 250 0
DWIDTH 4 0
BBX 3 14 1 -3
BITMAP
c0
c0
c0
c0
c0
c0
c0
c0
c0
c0
c0
80
80
60
ENDCHAR
STARTCHAR uni012F
ENCODING 303
SWIDTH 250 0
DWIDTH 4 0
BBX 3 14 1 -3
BITMAP
c0
c0
00
c0
c0
c0
c0
c0
c0
c0
c0
80
80
60
ENDCHAR
STARTCHAR uni0132
ENCODING 306
SWIDTH 625 0
DWIDTH 10 0
BBX 8 11 1 0
BITMAP
c3
c3
c3
c3
c3
c3
c3
c3
c3
c3
de
ENDCHAR
STARTCHAR uni0133
ENCODING 307
SWIDTH 500 0
DWIDTH 8 0
BBX 6 14 1 -3
BITMAP
cc
cc
00
cc
cc
cc
cc
cc
cc
cc
cc
0c
0c
18
ENDCHAR
STARTCHAR uni0134
ENCODING 308
SWIDTH 375 0
DWIDTH 6 0
BBX 6 13 0 0
BITMAP
38
6c
00
18
18
18
18
18
18
18
18
18
f0
ENDCHAR
STARTCHAR uni0135
ENCODING 309
SWIDTH 250 0
DWIDTH 5 0
BBX 5 14 0 -3
BITMAP
70
d8
00
60
60
60
60
60
60
60
60
60
60
c0
ENDCHAR
STARTCHAR uni0136
ENCODING 310
SWIDTH 625 0
DWIDTH 10 0
BBX 8 14 1 -3
BITMAP
c3
c6
c4
cc
d8
fc
ec
c6
c6
c3
c3
00
18
30
ENDCHAR
STARTCHAR uni0137
ENCODING 311
SWIDTH 563 0
DWIDTH 9 0
BBX 7 14 1 -3
BITMAP
c0
c0
c0
c6
cc
c8
d8
ec
cc
c6
c6
00
18
30
ENDCHAR
STARTCHAR uni0138
ENCODING 312
SWIDTH 563 0
DWIDTH 9 0
BBX 7 8 1 0
BITMAP
c6
cc
c8
d8
ec
cc
c6
c6
ENDCHAR
STARTCHAR uni0139
ENCODING 313
SWIDTH 500 0
DWIDTH 8 0
BBX 7 13 1 0
BITMAP
60
c0
00
c0
c0
c0
c0
c0
c0
c0
c0
c0
fe
ENDCHAR
STARTCHAR uni013A
ENCODING 314
SWIDTH 250 0
DWIDTH 4 0
BBX 3 13 1 0
BITMAP
60
c0
00
c0
c0
c0
c0
c0
c0
c0
c0
c0
c0
ENDCHAR
STARTCHAR uni013B
ENCODING 315
SWIDTH 500 0
DWIDTH 8 0
BBX 7 14 1 -3
BITMAP
c0
c0
c0
c0
c0
c0
c0
c0
c0
c0
fe
00
18
30
ENDCHAR
STARTCHAR uni013C
ENCODING 316
SWIDTH 250 0
DWIDTH 4 0
BBX 3 14 0 -3
BITMAP
60
60
60
60
60
60
60
60
60
60
60
00
60
c0
ENDCHAR
STARTCHAR uni013D
ENCODING 317
SWIDTH 500 0
DWIDTH 8 0
BBX 7 11 1 0
BITMAP
cc
cc
c4
c8
c0
c0
c0
c0
c0
c0
fe
ENDCHAR
STARTCHAR uni013E
ENCODING 318
SWIDTH 375 0
DWIDTH 6 0
BBX 5 11 1 0
BITMAP
d8
d8
d0
c0
c0
c0
c0
c0
c0
c0
c0
ENDCHAR
STARTCHAR uni013F
ENCODING 319
SWIDTH 500 0
DWIDTH 8 0
BBX 7 11 1 0
BITMAP
c0
c0
c0
c0
c0
cc
cc
c0
c0
c0
fe
ENDCHAR
STARTCHAR uni0140
ENCODING 320
SWIDTH 375 0
DWIDTH 6 0
BBX 5 11 1 0
BITMAP
c0
c0
c0
c0
c0
d8
d8
c0
c0
c0
c0
ENDCHAR
STARTCHAR uni0143
ENCODING 323
SWIDTH 625 0
DWIDTH 10 0
BBX 8 13 1 0
BITMAP
0c
18
00
c1
e1
f1
b1
99
8d
8d
87
83
83
ENDCHAR
STARTCHAR uni0144
ENCODING 324
SWIDTH 563 0
DWIDTH 9 0
BBX 7 12 1 0
BITMAP
06
0c
18
00
dc
e6
c6
c6
c6
c6
c6
c6
ENDCHAR
STARTCHAR uni0145
ENCODING 325
SWIDTH 625 0
DWIDTH 10 0
BBX 8 14 1 -3
BITMAP
c1
e1
e1
b1
b1
99
8d
8d
87
83
83
00
18
30
ENDCHAR
STARTCHAR uni0146
ENCODING 326
SWIDTH 563 0
DWIDTH 9 0
BBX 7 11 1 -3
BITMAP
dc
e6
c6
c6
c6
c6
c6
c6
00
18
30
ENDCHAR
STARTCHAR uni0147
ENCODING 327
SWIDTH 625 0
DWIDTH 10 0
BBX 8 13 1 0
BITMAP
36
1c
00
c1
e1
f1
b1
99
8d
8d
87
83
83
ENDCHAR
STARTCHAR uni0148
ENCODING 328
SWIDTH 563 0
DWIDTH 9 0
BBX 7 11 1 0
BITMAP
6c
38
00
dc
e6
c6
c6
c6
c6
c6
c6
ENDCHAR
STARTCHAR uni0149
ENCODING 329
SWIDTH 688 0
DWIDTH 11 0
BBX 9 11 1 0
BITMAP
c000
c000
4000
b700
3980
3180
3180
3180
3180
3180
3180
ENDCHAR
STARTCHAR uni014A
ENCODING 330
SWIDTH 625 0
DWIDTH 10 0
BBX 8 14 1 -3
BITMAP
de
e7
c3
c3
c3
c3
c3
c3
c3
c3
c3
03
03
0e
ENDCHAR
STARTCHAR uni014B
ENCODING 331
SWIDTH 563 0
DWIDTH 9 0
BBX 7 11 1 -3
BITMAP
dc
e6
c6
c6
c6
c6
c6
c6
06
06
1c
ENDCHAR
STARTCHAR uni014C
ENCODING 332
SWIDTH 625 0
DWIDTH 10 0
BBX 8 13 1 0
BITMAP
3c
00
00
3c
66
c3
c3
c3
c3
c3
c3
66
3c
ENDCHAR
STARTCHAR uni014D
ENCODING 333
SWIDTH 500 0
DWIDTH 9 0
BBX 7 11 1 0
BITMAP
3c
00
00
38
6c
c6
c6
c6
c6
6c
38
ENDCHAR
STARTCHAR uni014E
ENCODING 334
SWIDTH 625 0
DWIDTH 10 0
BBX 8 13 1 0
BITMAP
66
3c
00
3c
66
c3
c3
c3
c3
c3
c3
66
3c
ENDCHAR
STARTCHAR uni014F
ENCODING 335
SWIDTH 500 0
DWIDTH 9 0
BBX 7 11 1 0
BITMAP
cc
78
00
38
6c
c6
c6
c6
c6
6c
38
ENDCHAR
STARTCHAR uni0150
ENCODING 336
SWIDTH 625 0
DWIDTH 10 0
BBX 8 13 1 0
BITMAP
36
24
00
3c
66
c3
c3
c3
c3
c3
c3
66
3c
ENDCHAR
STARTCHAR uni0151
ENCODING 337
SWIDTH 500 0
DWIDTH 9 0
BBX 7 12 1 0
BITMAP
36
6c
48
00
38
6c
c6
c6
c6
c6
6c
38
ENDCHAR
STARTCHAR uni0154
ENCODING 340
SWIDTH 625 0
DWIDTH 10 0
BBX 8 13 1 0
BITMAP
18
30
00
fc
c6
c3
c3
c6
fc
cc
c6
c6
c3
ENDCHAR
STARTCHAR uni0155
ENCODING 341
SWIDTH 313 0
DWIDTH 5 0
BBX 4 12 1 0
BITMAP
30
60
c0
00
d0
f0
e0
c0
c0
c0
c0
c0
ENDCHAR
STARTCHAR uni0156
ENCODING 342
SWIDTH 625 0
DWIDTH 10 0
BBX 8 14 1 -3
BITMAP
fc
c6
c3
c3
c6
fc
cc
c6
c6
c3
c3
00
18
30
ENDCHAR
STARTCHAR uni0157
ENCODING 343
SWIDTH 313 0
DWIDTH 5 0
BBX 5 11 0 -3
BITMAP
68
78
70
60
60
60
60
60
00
60
c0
ENDCHAR
STARTCHAR uni0158
ENCODING 344
SWIDTH 625 0
DWIDTH 10 0
BBX 8 13 1 0
BITMAP
6c
38
00
fc
c6
c3
c3
c6
fc
cc
c6
c6
c3
ENDCHAR
STARTCHAR uni0159
ENCODING 345
SWIDTH 313 0
DWIDTH 5 0
BBX 5 11 0 0
BITMAP
d8
70
00
68
78
70
60
60
60
60
60
ENDCHAR
STARTCHAR uni015A
ENCODING 346
SWIDTH 563 0
DWIDTH 9 0
BBX 8 13 0 0
BITMAP
06
0c
00
3e
63
60
70
3c
0e
07
c3
67
3e
ENDCHAR
STARTCHAR uni015B
ENCODING 347
SWIDTH 438 0
DWIDTH 8 0
BBX 6 12 1 0
BITMAP
0c
18
30
00
78
cc
c0
f0
3c
0c
cc
78
ENDCHAR
STARTCHAR uni015C
ENCODING 348
SWIDTH 563 0
DWIDTH 9 0
BBX 8 13 0 0
BITMAP
1c
36
00
3e
63
60
70
3c
0e
07
c3
67
3e
ENDCHAR
STARTCHAR uni015D
ENCODING 349
SWIDTH 438 0
DWIDTH 8 0
BBX 6 11 1 0
BITMAP
38
6c
00
78
cc
c0
f0
3c
0c
cc
78
ENDCHAR
STARTCHAR uni0162
ENCODING 354
SWIDTH 500 0
DWIDTH 8 0
BBX 8 14 0 -3
BITMAP
ff
18
18
18
18
18
18
18
18
18
18
00
18
30
ENDCHAR
STARTCHAR uni0163
ENCODING 355
SWIDTH 313 0
DWIDTH 6 0
BBX 5 13 0 -3
BITMAP
60
60
f8
60
60
60
60
60
60
38
00
30
60
ENDCHAR
STARTCHAR uni0164
ENCODING 356
SWIDTH 500 0
DWIDTH 8 0
BBX 8 13 0 0
BITMAP
36
1c
00
ff
18
18
18
18
18
18
18
18
18
ENDCHAR
STARTCHAR uni0165
ENCODING 357
SWIDTH 375 0
DWIDTH 6 0
BBX 6 12 0 0
BITMAP
0c
0c
68
60
f8
60
60
60
60
60
60
38
ENDCHAR
STARTCHAR uni0166
ENCODING 358
SWIDTH 500 0
DWIDTH 8 0
BBX 8 11 0 0
BITMAP
ff
18
18
7e
18
18
18
18
18
18
18
ENDCHAR
STARTCHAR uni0167
ENCODING 359
SWIDTH 313 0
DWIDTH 6 0
BBX 5 10 0 0
BITMAP
60
60
f8
60
f8
60
60
60
60
38
ENDCHAR
STARTCHAR uni0168
ENCODING 360
SWIDTH 625 0
DWIDTH 10 0
BBX 8 13 1 0
BITMAP
1a
2c
00
c1
c1
c1
c1
c1
c1
c1
c1
62
3c
ENDCHAR
STARTCHAR uni0169
ENCODING 361
SWIDTH 563 0
DWIDTH 9 0
BBX 7 11 1 0
BITMAP
34
58
00
c6
c6
c6
c6
c6
c6
ce
76
ENDCHAR
STARTCHAR uni016A
ENCODING 362
SWIDTH 625 0
DWIDTH 10 0
BBX 8 13 1 0
BITMAP
1e
00
00
c1
c1
c1
c1
c1
c1
c1
c1
62
3c
ENDCHAR
STARTCHAR uni016B
ENCODING 363
SWIDTH 563 0
DWIDTH 9 0
BBX 7 11 1 0
BITMAP
3c
00
00
c6
c6
c6
c6
c6
c6
ce
76
ENDCHAR
STARTCHAR uni016C
ENCODING 364
SWIDTH 625 0
DWIDTH 10 0
BBX 8 13 1 0
BITMAP
66
3c
00
c1
c1
c1
c1
c1
c1
c1
c1
62
3c
ENDCHAR
STARTCHAR uni016D
ENCODING 365
SWIDTH 563 0
DWIDTH 9 0
BBX 7 11 1 0
BITMAP
cc
78
00
c6
c6
c6
c6
c6
c6
ce
76
ENDCHAR
STARTCHAR uni016E
ENCODING 366
SWIDTH 625 0
DWIDTH 10 0
BBX 8 13 1 0
BITMAP
0c
12
0c
c1
c1
c1
c1
c1
c1
c1
c1
62
3c
ENDCHAR
STARTCHAR uni016F
ENCODING 367
SWIDTH 563 0
DWIDTH 9 0
BBX 7 13 1 0
BITMAP
18
24
24
18
00
c6
c6
c6
c6
c6
c6
ce
76
ENDCHAR
STARTCHAR uni0170
ENCODING 368
SWIDTH 625 0
DWIDTH 10 0
BBX 8 13 1 0
BITMAP
36
24
00
c1
c1
c1
c1
c1
c1
c1
c1
62
3c
ENDCHAR
STARTCHAR uni0171
ENCODING 369
SWIDTH 563 0
DWIDTH 9 0
BBX 7 12 1 0
BITMAP
36
6c
48
00
c6
c6
c6
c6
c6
c6
ce
76
ENDCHAR
STARTCHAR uni0172
ENCODING 370
SWIDTH 625 0
DWIDTH 10 0
BBX 8 14 1 -3
BITMAP
c1
c1
c1
c1
c1
c1
c1
c1
c1
62
3c
08
08
06
ENDCHAR
STARTCHAR uni0173
ENCODING 371
SWIDTH 563 0
DWIDTH 9 0
BBX 8 11 1 -3
BITMAP
c6
c6
c6
c6
c6
c6
ce
76
04
04
03
ENDCHAR
STARTCHAR uni0174
ENCODING 372
SWIDTH 875 0
DWIDTH 14 0
BBX 14 13 0 0
BITMAP
0380
06c0
0000
c304
c30c
c308
6388
6598
34d0
34f0
38e0
1860
1860
ENDCHAR
STARTCHAR uni0175
ENCODING 373
SWIDTH 688 0
DWIDTH 11 0
BBX 11 11 0 0
BITMAP
0e00
1b00
0000
c460
c460
6ec0
6ec0
6ac0
3b80
3180
3180
ENDCHAR
STARTCHAR uni0176
ENCODING 374
SWIDTH 563 0
DWIDTH 8 0
BBX 8 13 0 0
BITMAP
1c
36
00
c3
62
66
34
3c
18
18
18
18
18
ENDCHAR
STARTCHAR uni0177
ENCODING 375
SWIDTH 438 0
DWIDTH 7 0
BBX 7 14 0 -3
BITMAP
38
6c
00
c2
c6
64
64
2c
38
38
18
10
30
60
ENDCHAR
STARTCHAR uni0179
ENCODING 377
SWIDTH 563 0
DWIDTH 10 0
BBX 8 13 1 0
BITMAP
0c
18
00
ff
06
0c
0c
18
30
30
60
c0
ff
ENDCHAR
STARTCHAR uni017A
ENCODING 378
SWIDTH 438 0
DWIDTH 8 0
BBX 6 12 1 0
BITMAP
0c
18
30
00
fc
0c
18
30
30
60
c0
fc
ENDCHAR
STARTCHAR uni017B
ENCODING 379
SWIDTH 563 0
DWIDTH 10 0
BBX 8 13 1 0
BITMAP
18
18
00
ff
06
0c
0c
18
30
30
60
c0
ff
ENDCHAR
STARTCHAR uni017C
ENCODING 380
SWIDTH 438 0
DWIDTH 8 0
BBX 6 11 1 0
BITMAP
30
30
00
fc
0c
18
30
30
60
c0
fc
ENDCHAR
STARTCHAR uni017F
ENCODING 383
SWIDTH 563 0
DWIDTH 9 0
BBX 4 11 3 0
BITMAP
70
c0
c0
c0
c0
c0
c0
c0
c0
c0
c0
ENDCHAR
STARTCHAR uni01FA
ENCODING 506
SWIDTH 625 0
DWIDTH 9 0
BBX 9 13 0 0
BITMAP
0c00
3000
0c00
1200
0c00
1c00
1600
3600
2300
3f00
6300
4180
c180
ENDCHAR
STARTCHAR uni01FB
ENCODING 507
SWIDTH 563 0
DWIDTH 9 0
BBX 7 13 1 0
BITMAP
18
60
18
24
18
7c
c6
06
7e
c6
c6
ce
76
ENDCHAR
STARTCHAR uni01FC
ENCODING 508
SWIDTH 875 0
DWIDTH 14 0
BBX 13 13 0 0
BITMAP
0060
00c0
0000
07f8
0b00
0b00
1300
13f0
3f00
2300
4300
4300
83f8
ENDCHAR
STARTCHAR uni01FD
ENCODING 509
SWIDTH 875 0
DWIDTH 14 0
BBX 12 12 1 0
BITMAP
00c0
0180
0300
0000
7de0
c730
0630
7ff0
c600
c600
cf30
71e0
ENDCHAR
STARTCHAR uni01FE
ENCODING 510
SWIDTH 625 0
DWIDTH 10 0
BBX 8 13 1 0
BITMAP
0c
18
00
3d
66
c3
c7
cb
d3
e3
c3
66
bc
ENDCHAR
STARTCHAR uni01FF
ENCODING 511
SWIDTH 500 0
DWIDTH 9 0
BBX 7 12 1 0
BITMAP
0c
18
30
00
3a
44
ce
d6
e6
c6
44
b8
ENDCHAR
STARTCHAR uni0384
ENCODING 900
SWIDTH 500 0
DWIDTH 8 0
BBX 3 3 1 9
BITMAP
60
c0
80
ENDCHAR
STARTCHAR uni0385
ENCODING 901
SWIDTH 500 0
DWIDTH 8 0
BBX 6 4 1 9
BITMAP
18
30
cc
cc
ENDCHAR
STARTCHAR uni0386
ENCODING 902
SWIDTH 625 0
DWIDTH 9 0
BBX 9 12 0 0
BITMAP
6000
cc00
9c00
1600
1600
3600
2300
2300
7f00
4180
4180
c180
ENDCHAR
STARTCHAR uni0387
ENCODING 903
SWIDTH 125 0
DWIDTH 2 0
BBX 2 2 0 3
BITMAP
c0
c0
ENDCHAR
STARTCHAR uni0388
ENCODING 904
SWIDTH 563 0
DWIDTH 11 0
BBX 10 12 0 0
BITMAP
6000
dfc0
9800
1800
1800
1800
1f80
1800
1800
1800
1800
1fc0
ENDCHAR
STARTCHAR uni0389
ENCODING 905
SWIDTH 625 0
DWIDTH 12 0
BBX 11 12 0 0
BITMAP
6000
d860
9860
1860
1860
1860
1fe0
1860
1860
1860
1860
1860
ENDCHAR
STARTCHAR uni038A
ENCODING 906
SWIDTH 250 0
DWIDTH 6 0
BBX 5 12 0 0
BITMAP
60
d8
98
18
18
18
18
18
18
18
18
18
ENDCHAR
STARTCHAR uni038C
ENCODING 908
SWIDTH 625 0
DWIDTH 11 0
BBX 10 12 0 0
BITMAP
6000
cf00
9980
30c0
30c0
30c0
30c0
30c0
30c0
30c0
1980
0f00
ENDCHAR
STARTCHAR uni038E
ENCODING 910
SWIDTH 563 0
DWIDTH 12 0
BBX 11 12 0 0
BITMAP
6000
d820
9860
0c40
0cc0
0680
0780
0300
0300
0300
0300
0300
ENDCHAR
STARTCHAR uni038F
ENCODING 911
SWIDTH 688 0
DWIDTH 12 0
BBX 11 12 0 0
BITMAP
6000
cf80
98c0
3060
3060
3060
3060
3060
3060
18c0
0880
3de0
ENDCHAR
STARTCHAR uni0390
ENCODING 912
SWIDTH 250 0
DWIDTH 6 0
BBX 6 13 0 0
BITMAP
18
30
cc
cc
00
30
30
30
30
30
30
30
30
ENDCHAR
STARTCHAR uni0391
ENCODING 913
SWIDTH 625 0
DWIDTH 9 0
BBX 9 11 0 0
BITMAP
0c00
1c00
1600
1600
3600
2300
2300
7f00
4180
4180
c180
ENDCHAR
STARTCHAR uni0392
ENCODING 914
SWIDTH 625 0
DWIDTH 10 0
BBX 8 11 1 0
BITMAP
fc
c6
c3
c3
c6
fc
c6
c3
c3
c6
fc
ENDCHAR
STARTCHAR uni0393
ENCODING 915
SWIDTH 438 0
DWIDTH 7 0
BBX 6 11 1 0
BITMAP
fc
c0
c0
c0
c0
c0
c0
c0
c0
c0
c0
ENDCHAR
STARTCHAR uni0394
ENCODING 916
SWIDTH 563 0
DWIDTH 10 0
BBX 10 11 0 0
BITMAP
0c00
0c00
1e00
1600
3700
2300
2300
6180
4180
ffc0
ffc0
ENDCHAR
STARTCHAR uni0395
ENCODING 917
SWIDTH 563 0
DWIDTH 9 0
BBX 7 11 1 0
BITMAP
fe
c0
c0
c0
c0
fc
c0
c0
c0
c0
fe
ENDCHAR
STARTCHAR uni0396
ENCODING 918
SWIDTH 563 0
DWIDTH 10 0
BBX 8 11 1 0
BITMAP
ff
03
06
0c
0c
18
30
30
60
c0
ff
ENDCHAR
STARTCHAR uni0397
ENCODING 919
SWIDTH 625 0
DWIDTH 10 0
BBX 8 11 1 0
BITMAP
c3
c3
c3
c3
c3
ff
c3
c3
c3
c3
c3
ENDCHAR
STARTCHAR uni0398
ENCODING 920
SWIDTH 688 0
DWIDTH 11 0
BBX 9 11 1 0
BITMAP
3e00
6300
c180
c180
c180
dd80
c180
c180
c180
6300
3e00
ENDCHAR
STARTCHAR uni0399
ENCODING 921
SWIDTH 250 0
DWIDTH 4 0
BBX 2 11 1 0
BITMAP
c0
c0
c0
c0
c0
c0
c0
c0
c0
c0
c0
ENDCHAR
STARTCHAR uni039A
ENCODING 922
SWIDTH 625 0
DWIDTH 10 0
BBX 8 11 1 0
BITMAP
c3
c6
c4
cc
d8
fc
ec
c6
c6
c3
c3
ENDCHAR
STARTCHAR uni039B
ENCODING 923
SWIDTH 563 0
DWIDTH 9 0
BBX 9 11 0 0
BITMAP
0c00
1c00
1600
1600
3600
2300
2300
6300
4180
4180
c180
ENDCHAR
STARTCHAR uni039C
ENCODING 924
SWIDTH 813 0
DWIDTH 13 0
BBX 11 11 1 0
BITMAP
e0e0
e0e0
f1e0
b160
b160
9b60
9a60
9a60
8e60
8c60
8c60
ENDCHAR
STARTCHAR uni039D
ENCODING 925
SWIDTH 625 0
DWIDTH 10 0
BBX 8 11 1 0
BITMAP
c1
e1
e1
b1
b1
99
8d
8d
87
83
83
ENDCHAR
STARTCHAR uni039E
ENCODING 926
SWIDTH 563 0
DWIDTH 9 0
BBX 7 11 1 0
BITMAP
fe
fe
00
00
00
7c
00
00
00
fe
fe
ENDCHAR
STARTCHAR uni039F
ENCODING 927
SWIDTH 625 0
DWIDTH 10 0
BBX 8 11 1 0
BITMAP
3c
66
c3
c3
c3
c3
c3
c3
c3
66
3c
ENDCHAR
STARTCHAR uni03A0
ENCODING 928
SWIDTH 625 0
DWIDTH 10 0
BBX 8 11 1 0
BITMAP
ff
c3
c3
c3
c3
c3
c3
c3
c3
c3
c3
ENDCHAR
STARTCHAR uni03A1
ENCODING 929
SWIDTH 625 0
DWIDTH 10 0
BBX 8 11 1 0
BITMAP
fc
c6
c3
c3
c6
fc
c0
c0
c0
c0
c0
ENDCHAR
STARTCHAR uni03A3
ENCODING 931
SWIDTH 500 0
DWIDTH 9 0
BBX 7 11 1 0
BITMAP
fe
c0
60
30
18
18
30
60
c0
fe
fe
ENDCHAR
STARTCHAR uni03A4
ENCODING 932
SWIDTH 500 0
DWIDTH 8 0
BBX 8 11 0 0
BITMAP
ff
18
18
18
18
18
18
18
18
18
18
ENDCHAR
STARTCHAR uni03A5
ENCODING 933
SWIDTH 563 0
DWIDTH 8 0
BBX 8 11 0 0
BITMAP
c1
c3
62
66
34
3c
18
18
18
18
18
ENDCHAR
STARTCHAR uni03A6
ENCODING 934
SWIDTH 750 0
DWIDTH 12 0
BBX 10 11 1 0
BITMAP
0c00
3f00
6d80
ccc0
ccc0
ccc0
ccc0
ccc0
6d80
3f00
0c00
ENDCHAR
STARTCHAR uni03A7
ENCODING 935
SWIDTH 563 0
DWIDTH 9 0
BBX 9 11 0 0
BITMAP
c180
6100
6200
3600
1c00
1c00
1c00
2600
2300
4300
c180
ENDCHAR
STARTCHAR uni03A8
ENCODING 936
SWIDTH 813 0
DWIDTH 12 0
BBX 10 11 1 0
BITMAP
ccc0
ccc0
ccc0
ccc0
ccc0
ccc0
ccc0
6d80
3f00
0c00
0c00
ENDCHAR
STARTCHAR uni03A9
ENCODING 937
SWIDTH 688 0
DWIDTH 11 0
BBX 9 11 1 0
BITMAP
3e00
6300
c180
c180
c180
c180
c180
c180
6300
2200
f780
ENDCHAR
STARTCHAR uni03AA
ENCODING 938
SWIDTH 250 0
DWIDTH 5 0
BBX 5 13 0 0
BITMAP
d8
d8
00
60
60
60
60
60
60
60
60
60
60
ENDCHAR
STARTCHAR uni03AB
ENCODING 939
SWIDTH 563 0
DWIDTH 8 0
BBX 8 13 0 0
BITMAP
36
36
00
c3
62
66
34
3c
18
18
18
18
18
ENDCHAR
STARTCHAR uni03AC
ENCODING 940
SWIDTH 625 0
DWIDTH 10 0
BBX 8 12 1 0
BITMAP
0c
18
10
00
3b
6e
c6
c6
c6
c6
6f
3b
ENDCHAR
STARTCHAR uni03AD
ENCODING 941
SWIDTH 438 0
DWIDTH 8 0
BBX 6 12 1 0
BITMAP
18
30
20
00
78
cc
c0
70
c0
cc
cc
78
ENDCHAR
STARTCHAR uni03AE
ENCODING 942
SWIDTH 563 0
DWIDTH 9 0
BBX 7 15 1 -3
BITMAP
0c
18
10
00
dc
e6
c6
c6
c6
c6
c6
c6
06
06
06
ENDCHAR
STARTCHAR uni03AF
ENCODING 943
SWIDTH 250 0
DWIDTH 4 0
BBX 3 12 1 0
BITMAP
60
c0
80
00
c0
c0
c0
c0
c0
c0
c0
c0
ENDCHAR
STARTCHAR uni03B0
ENCODING 944
SWIDTH 500 0
DWIDTH 9 0
BBX 7 13 1 0
BITMAP
0c
18
66
66
00
c6
c6
c6
c6
c6
c6
c6
7c
ENDCHAR
STARTCHAR uni03B1
ENCODING 945
SWIDTH 625 0
DWIDTH 10 0
BBX 8 8 1 0
BITMAP
3b
6e
c6
c6
c6
c6
6f
3b
ENDCHAR
STARTCHAR uni03B2
ENCODING 946
SWIDTH 563 0
DWIDTH 10 0
BBX 8 14 1 -3
BITMAP
38
6c
c6
c6
dc
c6
c3
c3
c3
e6
dc
c0
c0
c0
ENDCHAR
STARTCHAR uni03B3
ENCODING 947
SWIDTH 438 0
DWIDTH 8 0
BBX 8 11 0 -3
BITMAP
c1
c3
62
66
34
3c
18
18
18
18
18
ENDCHAR
STARTCHAR uni03B4
ENCODING 948
SWIDTH 563 0
DWIDTH 9 0
BBX 7 11 1 0
BITMAP
7c
60
30
38
6c
c6
c6
c6
c6
6c
38
ENDCHAR
STARTCHAR uni03B5
ENCODING 949
SWIDTH 438 0
DWIDTH 8 0
BBX 6 8 1 0
BITMAP
78
cc
c0
70
c0
cc
cc
78
ENDCHAR
STARTCHAR uni03B6
ENCODING 950
SWIDTH 375 0
DWIDTH 6 0
BBX 5 14 1 -3
BITMAP
f8
10
30
60
60
c0
c0
c0
c0
e0
70
18
18
18
ENDCHAR
STARTCHAR uni03B7
ENCODING 951
SWIDTH 563 0
DWIDTH 9 0
BBX 7 11 1 -3
BITMAP
dc
e6
c6
c6
c6
c6
c6
c6
06
06
06
ENDCHAR
STARTCHAR uni03B8
ENCODING 952
SWIDTH 563 0
DWIDTH 9 0
BBX 7 11 1 0
BITMAP
38
6c
c6
c6
c6
fe
c6
c6
c6
6c
38
ENDCHAR
STARTCHAR uni03B9
ENCODING 953
SWIDTH 250 0
DWIDTH 4 0
BBX 2 8 1 0
BITMAP
c0
c0
c0
c0
c0
c0
c0
c0
ENDCHAR
STARTCHAR uni03BA
ENCODING 954
SWIDTH 500 0
DWIDTH 9 0
BBX 7 8 1 0
BITMAP
c6
cc
c8
d8
ec
cc
c6
c6
ENDCHAR
STARTCHAR uni03BB
ENCODING 955
SWIDTH 438 0
DWIDTH 7 0
BBX 7 11 0 0
BITMAP
60
60
30
30
18
18
38
2c
4c
46
86
ENDCHAR
STARTCHAR uni03BC
ENCODING 956
SWIDTH 563 0
DWIDTH 9 0
BBX 7 11 1 -3
BITMAP
c6
c6
c6
c6
c6
c6
ee
d6
c0
c0
c0
ENDCHAR
STARTCHAR uni03BD
ENCODING 957
SWIDTH 438 0
DWIDTH 7 0
BBX 7 8 0 0
BITMAP
c2
c6
64
6c
38
38
10
10
ENDCHAR
STARTCHAR uni03BE
ENCODING 958
SWIDTH 438 0
DWIDTH 7 0
BBX 6 14 1 -3
BITMAP
fc
60
c0
c0
60
38
60
c0
c0
e0
78
0c
0c
0c
ENDCHAR
STARTCHAR uni03BF
ENCODING 959
SWIDTH 500 0
DWIDTH 9 0
BBX 7 8 1 0
BITMAP
38
6c
c6
c6
c6
c6
6c
38
ENDCHAR
STARTCHAR uni03C0
ENCODING 960
SWIDTH 500 0
DWIDTH 9 0
BBX 9 8 0 0
BITMAP
ff80
6300
6300
6300
6300
6300
6300
6300
ENDCHAR
STARTCHAR uni03C1
ENCODING 961
SWIDTH 563 0
DWIDTH 9 0
BBX 7 11 1 -3
BITMAP
38
6c
c6
c6
c6
c6
ec
d8
c0
c0
c0
ENDCHAR
STARTCHAR uni03C2
ENCODING 962
SWIDTH 500 0
DWIDTH 9 0
BBX 7 11 1 -3
BITMAP
38
6c
c6
c0
c0
c0
60
3c
06
06
06
ENDCHAR
STARTCHAR uni03C3
ENCODING 963
SWIDTH 563 0
DWIDTH 9 0
BBX 8 8 1 0
BITMAP
3f
6c
c6
c6
c6
c6
6c
38
ENDCHAR
STARTCHAR uni03C4
ENCODING 964
SWIDTH 375 0
DWIDTH 6 0
BBX 6 8 0 0
BITMAP
fc
30
30
30
30
30
30
30
ENDCHAR
STARTCHAR uni03C5
ENCODING 965
SWIDTH 500 0
DWIDTH 9 0
BBX 7 8 1 0
BITMAP
c6
c6
c6
c6
c6
c6
c6
7c
ENDCHAR
STARTCHAR uni03C6
ENCODING 966
SWIDTH 688 0
DWIDTH 12 0
BBX 10 11 1 -3
BITMAP
2f00
6d80
ccc0
ccc0
ccc0
ccc0
6d80
3f00
0c00
0c00
0c00
ENDCHAR
STARTCHAR uni03C7
ENCODING 967
SWIDTH 500 0
DWIDTH 8 0
BBX 8 11 0 -3
BITMAP
c1
62
64
34
38
18
1c
2c
26
46
83
ENDCHAR
STARTCHAR uni03C8
ENCODING 968
SWIDTH 750 0
DWIDTH 12 0
BBX 10 11 1 -3
BITMAP
ccc0
ccc0
ccc0
ccc0
ccc0
ccc0
ccc0
7f80
0c00
0c00
0c00
ENDCHAR
STARTCHAR uni03C9
ENCODING 969
SWIDTH 688 0
DWIDTH 12 0
BBX 10 8 1 0
BITMAP
2100
6180
ccc0
ccc0
ccc0
ccc0
ccc0
7380
ENDCHAR
STARTCHAR uni03CA
ENCODING 970
SWIDTH 250 0
DWIDTH 5 0
BBX 5 11 0 0
BITMAP
d8
d8
00
60
60
60
60
60
60
60
60
ENDCHAR
STARTCHAR uni03CB
ENCODING 971
SWIDTH 500 0
DWIDTH 9 0
BBX 7 11 1 0
BITMAP
6c
6c
00
c6
c6
c6
c6
c6
c6
c6
7c
ENDCHAR
STARTCHAR uni03CC
ENCODING 972
SWIDTH 500 0
DWIDTH 8 0
BBX 7 12 1 0
BITMAP
0c
18
10
00
38
6c
c6
c6
c6
c6
6c
38
ENDCHAR
STARTCHAR uni03CD
ENCODING 973
SWIDTH 500 0
DWIDTH 9 0
BBX 7 12 1 0
BITMAP
0c
18
10
00
c6
c6
c6
c6
c6
c6
c6
7c
ENDCHAR
STARTCHAR uni03CE
ENCODING 974
SWIDTH 688 0
DWIDTH 12 0
BBX 10 12 1 0
BITMAP
0300
0600
0400
0000
2100
6180
ccc0
ccc0
ccc0
ccc0
ccc0
7380
ENDCHAR
STARTCHAR uni0401
ENCODING 1025
SWIDTH 563 0
DWIDTH 9 0
BBX 7 13 1 0
BITMAP
6c
6c
00
fe
c0
c0
c0
fc
c0
c0
c0
c0
fe
ENDCHAR
STARTCHAR uni0402
ENCODING 1026
SWIDTH 625 0
DWIDTH 10 0
BBX 9 14 0 -3
BITMAP
ff00
3000
3000
3000
3700
3980
3180
3180
3180
3180
3180
0180
0180
0300
ENDCHAR
STARTCHAR uni0403
ENCODING 1027
SWIDTH 438 0
DWIDTH 7 0
BBX 6 13 1 0
BITMAP
18
30
00
fc
c0
c0
c0
c0
c0
c0
c0
c0
c0
ENDCHAR
STARTCHAR uni0404
ENCODING 1028
SWIDTH 625 0
DWIDTH 10 0
BBX 8 11 1 0
BITMAP
3c
66
c3
c3
c0
f8
c0
c3
c3
66
3c
ENDCHAR
STARTCHAR uni0405
ENCODING 1029
SWIDTH 563 0
DWIDTH 9 0
BBX 8 11 0 0
BITMAP
3e
63
60
70
3c
1e
07
03
c3
67
3e
ENDCHAR
STARTCHAR uni0406
ENCODING 1030
SWIDTH 250 0
DWIDTH 4 0
BBX 2 11 1 0
BITMAP
c0
c0
c0
c0
c0
c0
c0
c0
c0
c0
c0
ENDCHAR
STARTCHAR uni0407
ENCODING 1031
SWIDTH 250 0
DWIDTH 5 0
BBX 5 13 0 0
BITMAP
d8
d8
00
60
60
60
60
60
60
60
60
60
60
ENDCHAR
STARTCHAR uni0408
ENCODING 1032
SWIDTH 375 0
DWIDTH 6 0
BBX 5 11 0 0
BITMAP
18
18
18
18
18
18
18
18
18
18
f0
ENDCHAR
STARTCHAR uni0409
ENCODING 1033
SWIDTH 813 0
DWIDTH 14 0
BBX 13 11 0 0
BITMAP
0c00
1c00
1600
1600
3700
23e0
2330
6318
4198
41b0
c1e0
ENDCHAR
STARTCHAR uni040A
ENCODING 1034
SWIDTH 938 0
DWIDTH 15 0
BBX 13 11 1 0
BITMAP
c300
c300
c300
c300
c300
ffe0
c330
c318
c318
c330
c3e0
ENDCHAR
STARTCHAR uni040B
ENCODING 1035
SWIDTH 625 0
DWIDTH 10 0
BBX 9 11 0 0
BITMAP
ff00
3000
3000
3000
3700
3980
3180
3180
3180
3180
3180
ENDCHAR
STARTCHAR uni040C
ENCODING 1036
SWIDTH 625 0
DWIDTH 10 0
BBX 8 13 1 0
BITMAP
0c
18
00
c3
c6
cc
d8
fc
ec
c6
c6
c3
c3
ENDCHAR
STARTCHAR uni040E
ENCODING 1038
SWIDTH 500 0
DWIDTH 8 0
BBX 8 13 0 0
BITMAP
66
3c
00
c3
c2
62
66
34
3c
18
18
18
70
ENDCHAR
STARTCHAR uni040F
ENCODING 1039
SWIDTH 625 0
DWIDTH 10 0
BBX 8 13 1 -2
BITMAP
c3
c3
c3
c3
c3
c3
c3
c3
c3
c3
ff
18
18
ENDCHAR
STARTCHAR uni0410
ENCODING 1040
SWIDTH 625 0
DWIDTH 9 0
BBX 9 11 0 0
BITMAP
0c00
1c00
1600
1600
3600
2300
2300
7f00
4180
4180
c180
ENDCHAR
STARTCHAR uni0411
ENCODING 1041
SWIDTH 625 0
DWIDTH 10 0
BBX 8 11 1 0
BITMAP
fe
c0
c0
c0
c0
fc
c6
c3
c3
c6
fc
ENDCHAR
STARTCHAR uni0412
ENCODING 1042
SWIDTH 625 0
DWIDTH 10 0
BBX 8 11 1 0
BITMAP
fc
c6
c3
c3
c6
fc
c6
c3
c3
c6
fc
ENDCHAR
STARTCHAR uni0413
ENCODING 1043
SWIDTH 438 0
DWIDTH 7 0
BBX 6 11 1 0
BITMAP
fc
c0
c0
c0
c0
c0
c0
c0
c0
c0
c0
ENDCHAR
STARTCHAR uni0414
ENCODING 1044
SWIDTH 625 0
DWIDTH 10 0
BBX 10 13 0 -2
BITMAP
0c00
0c00
1e00
1600
1600
3300
2300
2300
6180
4180
ffc0
c0c0
c0c0
ENDCHAR
STARTCHAR uni0415
ENCODING 1045
SWIDTH 563 0
DWIDTH 9 0
BBX 7 11 1 0
BITMAP
fe
c0
c0
c0
c0
fc
c0
c0
c0
c0
fe
ENDCHAR
STARTCHAR uni0416
ENCODING 1046
SWIDTH 813 0
DWIDTH 14 0
BBX 12 11 1 0
BITMAP
c630
6660
2640
36c0
1f80
3fc0
36c0
6660
6660
c630
c630
ENDCHAR
STARTCHAR uni0417
ENCODING 1047
SWIDTH 563 0
DWIDTH 9 0
BBX 7 11 1 0
BITMAP
7c
c6
c6
06
04
18
06
06
c6
c6
7c
ENDCHAR
STARTCHAR uni0418
ENCODING 1048
SWIDTH 688 0
DWIDTH 11 0
BBX 9 11 1 0
BITMAP
c180
c180
c380
c780
c580
c980
d980
f180
e180
c180
c180
ENDCHAR
STARTCHAR uni0419
ENCODING 1049
SWIDTH 688 0
DWIDTH 11 0
BBX 9 13 1 0
BITMAP
6600
3c00
0000
c180
c380
c780
c580
c980
d980
f180
e180
c180
c180
ENDCHAR
STARTCHAR uni041A
ENCODING 1050
SWIDTH 625 0
DWIDTH 10 0
BBX 8 11 1 0
BITMAP
c3
c6
c4
cc
d8
fc
ec
c6
c6
c3
c3
ENDCHAR
STARTCHAR uni041B
ENCODING 1051
SWIDTH 563 0
DWIDTH 9 0
BBX 9 11 0 0
BITMAP
0c00
1c00
1600
1600
3600
2300
2300
6300
4180
4180
c180
ENDCHAR
STARTCHAR uni041C
ENCODING 1052
SWIDTH 813 0
DWIDTH 13 0
BBX 11 11 1 0
BITMAP
e0e0
e0e0
f1e0
b160
b160
9b60
9a60
9a60
8e60
8c60
8c60
ENDCHAR
STARTCHAR uni041D
ENCODING 1053
SWIDTH 625 0
DWIDTH 10 0
BBX 8 11 1 0
BITMAP
c3
c3
c3
c3
c3
ff
c3
c3
c3
c3
c3
ENDCHAR
STARTCHAR uni041E
ENCODING 1054
SWIDTH 625 0
DWIDTH 10 0
BBX 8 11 1 0
BITMAP
3c
66
c3
c3
c3
c3
c3
c3
c3
66
3c
ENDCHAR
STARTCHAR uni041F
ENCODING 1055
SWIDTH 625 0
DWIDTH 10 0
BBX 8 11 1 0
BITMAP
ff
c3
c3
c3
c3
c3
c3
c3
c3
c3
c3
ENDCHAR
STARTCHAR uni0420
ENCODING 1056
SWIDTH 625 0
DWIDTH 10 0
BBX 8 11 1 0
BITMAP
fc
c6
c3
c3
c6
fc
c0
c0
c0
c0
c0
ENDCHAR
STARTCHAR uni0421
ENCODING 1057
SWIDTH 563 0
DWIDTH 10 0
BBX 8 11 1 0
BITMAP
3c
66
c3
c3
c0
c0
c0
c3
c3
66
3c
ENDCHAR
STARTCHAR uni0422
ENCODING 1058
SWIDTH 500 0
DWIDTH 8 0
BBX 8 11 0 0
BITMAP
ff
18
18
18
18
18
18
18
18
18
18
ENDCHAR
STARTCHAR uni0423
ENCODING 1059
SWIDTH 500 0
DWIDTH 8 0
BBX 8 11 0 0
BITMAP
c1
c3
62
62
26
34
3c
18
18
18
70
ENDCHAR
STARTCHAR uni0424
ENCODING 1060
SWIDTH 750 0
DWIDTH 12 0
BBX 10 11 1 0
BITMAP
0c00
3f00
6d80
ccc0
ccc0
ccc0
ccc0
ccc0
6d80
3f00
0c00
ENDCHAR
STARTCHAR uni0425
ENCODING 1061
SWIDTH 563 0
DWIDTH 9 0
BBX 9 11 0 0
BITMAP
c180
6100
6200
3600
1c00
1c00
1c00
2600
2300
4300
c180
ENDCHAR
STARTCHAR uni0426
ENCODING 1062
SWIDTH 625 0
DWIDTH 11 0
BBX 10 13 1 -2
BITMAP
c300
c300
c300
c300
c300
c300
c300
c300
c300
c300
ffc0
00c0
00c0
ENDCHAR
STARTCHAR uni0427
ENCODING 1063
SWIDTH 625 0
DWIDTH 10 0
BBX 8 11 1 0
BITMAP
c3
c3
c3
c3
c3
67
3b
03
03
03
03
ENDCHAR
STARTCHAR uni0428
ENCODING 1064
SWIDTH 938 0
DWIDTH 14 0
BBX 12 11 1 0
BITMAP
c630
c630
c630
c630
c630
c630
c630
c630
c630
c630
fff0
ENDCHAR
STARTCHAR uni0429
ENCODING 1065
SWIDTH 938 0
DWIDTH 15 0
BBX 14 13 1 -2
BITMAP
c630
c630
c630
c630
c630
c630
c630
c630
c630
c630
fffc
000c
000c
ENDCHAR
STARTCHAR uni042A
ENCODING 1066
SWIDTH 625 0
DWIDTH 11 0
BBX 10 11 0 0
BITMAP
f000
3000
3000
3000
3f00
3180
30c0
30c0
30c0
3180
3f00
ENDCHAR
STARTCHAR uni042B
ENCODING 1067
SWIDTH 875 0
DWIDTH 14 0
BBX 12 11 1 0
BITMAP
c030
c030
c030
c030
fc30
c630
c330
c330
c330
c630
fc30
ENDCHAR
STARTCHAR uni042C
ENCODING 1068
SWIDTH 563 0
DWIDTH 10 0
BBX 8 11 1 0
BITMAP
c0
c0
c0
c0
fc
c6
c3
c3
c3
c6
fc
ENDCHAR
STARTCHAR uni042D
ENCODING 1069
SWIDTH 625 0
DWIDTH 10 0
BBX 8 11 1 0
BITMAP
3c
66
c3
c3
03
1f
03
c3
c3
66
3c
ENDCHAR
STARTCHAR uni042E
ENCODING 1070
SWIDTH 938 0
DWIDTH 14 0
BBX 12 11 1 0
BITMAP
c3c0
c660
cc30
cc30
cc30
fc30
cc30
cc30
cc30
c660
c3c0
ENDCHAR
STARTCHAR uni042F
ENCODING 1071
SWIDTH 625 0
DWIDTH 10 0
BBX 8 11 1 0
BITMAP
3f
63
c3
c3
63
3f
33
63
63
c3
c3
ENDCHAR
STARTCHAR uni0430
ENCODING 1072
SWIDTH 563 0
DWIDTH 9 0
BBX 7 8 1 0
BITMAP
7c
c6
06
7e
c6
c6
ce
76
ENDCHAR
STARTCHAR uni0431
ENCODING 1073
SWIDTH 563 0
DWIDTH 9 0
BBX 7 12 1 0
BITMAP
0c
38
60
40
f8
ec
c6
c6
c6
c6
6c
38
ENDCHAR
STARTCHAR uni0432
ENCODING 1074
SWIDTH 563 0
DWIDTH 9 0
BBX 7 8 1 0
BITMAP
fc
c6
c6
fc
c6
c6
c6
fc
ENDCHAR
STARTCHAR uni0433
ENCODING 1075
SWIDTH 375 0
DWIDTH 6 0
BBX 5 8 1 0
BITMAP
f8
c0
c0
c0
c0
c0
c0
c0
ENDCHAR
STARTCHAR uni0434
ENCODING 1076
SWIDTH 500 0
DWIDTH 8 0
BBX 8 10 0 -2
BITMAP
3c
2c
2c
24
66
46
46
ff
c3
c3
ENDCHAR
STARTCHAR uni0435
ENCODING 1077
SWIDTH 500 0
DWIDTH 9 0
BBX 7 8 1 0
BITMAP
3c
66
c6
fe
c0
c0
66
3c
ENDCHAR
STARTCHAR uni0436
ENCODING 1078
SWIDTH 625 0
DWIDTH 10 0
BBX 10 8 0 0
BITMAP
ccc0
4c80
6d80
3f00
6d80
6d80
ccc0
ccc0
ENDCHAR
STARTCHAR uni0437
ENCODING 1079
SWIDTH 438 0
DWIDTH 8 0
BBX 6 8 1 0
BITMAP
78
cc
0c
38
0c
cc
cc
78
ENDCHAR
STARTCHAR uni0438
ENCODING 1080
SWIDTH 563 0
DWIDTH 9 0
BBX 7 8 1 0
BITMAP
c6
ce
ce
d6
d6
e6
e6
c6
ENDCHAR
STARTCHAR uni0439
ENCODING 1081
SWIDTH 563 0
DWIDTH 9 0
BBX 7 11 1 0
BITMAP
cc
78
00
c6
ce
ce
d6
d6
e6
e6
c6
ENDCHAR
STARTCHAR uni043A
ENCODING 1082
SWIDTH 500 0
DWIDTH 9 0
BBX 7 8 1 0
BITMAP
c6
cc
c8
d8
ec
cc
c6
c6
ENDCHAR
STARTCHAR uni043B
ENCODING 1083
SWIDTH 438 0
DWIDTH 7 0
BBX 7 8 0 0
BITMAP
38
38
2c
4c
4c
46
86
86
ENDCHAR
STARTCHAR uni043C
ENCODING 1084
SWIDTH 750 0
DWIDTH 12 0
BBX 10 8 1 0
BITMAP
c0c0
e1c0
e1c0
b2c0
b2c0
9cc0
9cc0
88c0
ENDCHAR
STARTCHAR uni043D
ENCODING 1085
SWIDTH 563 0
DWIDTH 9 0
BBX 7 8 1 0
BITMAP
c6
c6
c6
fe
c6
c6
c6
c6
ENDCHAR
STARTCHAR uni043E
ENCODING 1086
SWIDTH 500 0
DWIDTH 9 0
BBX 7 8 1 0
BITMAP
38
6c
c6
c6
c6
c6
6c
38
ENDCHAR
STARTCHAR uni043F
ENCODING 1087
SWIDTH 500 0
DWIDTH 9 0
BBX 7 8 1 0
BITMAP
fe
c6
c6
c6
c6
c6
c6
c6
ENDCHAR
STARTCHAR uni0440
ENCODING 1088
SWIDTH 563 0
DWIDTH 9 0
BBX 7 11 1 -3
BITMAP
d8
ec
c6
c6
c6
c6
ec
d8
c0
c0
c0
ENDCHAR
STARTCHAR uni0441
ENCODING 1089
SWIDTH 438 0
DWIDTH 9 0
BBX 7 8 1 0
BITMAP
38
6c
c6
c0
c0
c6
6c
38
ENDCHAR
STARTCHAR uni0442
ENCODING 1090
SWIDTH 375 0
DWIDTH 6 0
BBX 6 8 0 0
BITMAP
fc
30
30
30
30
30
30
30
ENDCHAR
STARTCHAR uni0443
ENCODING 1091
SWIDTH 438 0
DWIDTH 7 0
BBX 7 11 0 -3
BITMAP
c2
c6
64
64
2c
38
38
18
10
30
60
ENDCHAR
STARTCHAR uni0444
ENCODING 1092
SWIDTH 625 0
DWIDTH 12 0
BBX 10 14 1 -3
BITMAP
0c00
0c00
0c00
3f00
6d80
ccc0
ccc0
ccc0
ccc0
6d80
3f00
0c00
0c00
0c00
ENDCHAR
STARTCHAR uni0445
ENCODING 1093
SWIDTH 438 0
DWIDTH 7 0
BBX 7 8 0 0
BITMAP
c6
64
38
30
18
38
4c
c6
ENDCHAR
STARTCHAR uni0446
ENCODING 1094
SWIDTH 563 0
DWIDTH 9 0
BBX 8 10 1 -2
BITMAP
c6
c6
c6
c6
c6
c6
c6
ff
03
03
ENDCHAR
STARTCHAR uni0447
ENCODING 1095
SWIDTH 500 0
DWIDTH 9 0
BBX 7 8 1 0
BITMAP
c6
c6
c6
c6
7e
06
06
06
ENDCHAR
STARTCHAR uni0448
ENCODING 1096
SWIDTH 813 0
DWIDTH 12 0
BBX 10 8 1 0
BITMAP
ccc0
ccc0
ccc0
ccc0
ccc0
ccc0
ccc0
ffc0
ENDCHAR
STARTCHAR uni0449
ENCODING 1097
SWIDTH 813 0
DWIDTH 12 0
BBX 11 10 1 -2
BITMAP
ccc0
ccc0
ccc0
ccc0
ccc0
ccc0
ccc0
ffe0
0060
0060
ENDCHAR
STARTCHAR uni044A
ENCODING 1098
SWIDTH 563 0
DWIDTH 10 0
BBX 9 8 0 0
BITMAP
f000
3000
3000
3f00
3180
3180
3180
3f00
ENDCHAR
STARTCHAR uni044B
ENCODING 1099
SWIDTH 750 0
DWIDTH 13 0
BBX 11 8 1 0
BITMAP
c060
c060
c060
fc60
c660
c660
c660
fc60
ENDCHAR
STARTCHAR uni044C
ENCODING 1100
SWIDTH 500 0
DWIDTH 9 0
BBX 7 8 1 0
BITMAP
c0
c0
c0
fc
c6
c6
c6
fc
ENDCHAR
STARTCHAR uni044D
ENCODING 1101
SWIDTH 500 0
DWIDTH 9 0
BBX 7 8 1 0
BITMAP
78
cc
06
3e
06
06
cc
78
ENDCHAR
STARTCHAR uni044E
ENCODING 1102
SWIDTH 750 0
DWIDTH 12 0
BBX 10 8 1 0
BITMAP
c700
cd80
d8c0
f8c0
d8c0
d8c0
cd80
c700
ENDCHAR
STARTCHAR uni044F
ENCODING 1103
SWIDTH 500 0
DWIDTH 8 0
BBX 6 8 1 0
BITMAP
7c
cc
cc
cc
7c
6c
cc
cc
ENDCHAR
STARTCHAR uni0451
ENCODING 1105
SWIDTH 500 0
DWIDTH 9 0
BBX 7 11 1 0
BITMAP
6c
6c
00
3c
66
c6
fe
c0
c0
66
3c
ENDCHAR
STARTCHAR uni0452
ENCODING 1106
SWIDTH 500 0
DWIDTH 9 0
BBX 8 14 0 -3
BITMAP
60
fc
60
6e
73
63
63
63
63
63
63
03
03
0e
ENDCHAR
STARTCHAR uni0453
ENCODING 1107
SWIDTH 375 0
DWIDTH 6 0
BBX 5 12 1 0
BITMAP
18
30
60
00
f8
c0
c0
c0
c0
c0
c0
c0
ENDCHAR
STARTCHAR uni0454
ENCODING 1108
SWIDTH 500 0
DWIDTH 9 0
BBX 7 8 1 0
BITMAP
3c
66
c0
f8
c0
c0
66
3c
ENDCHAR
STARTCHAR uni0455
ENCODING 1109
SWIDTH 438 0
DWIDTH 8 0
BBX 6 8 1 0
BITMAP
78
cc
c0
f0
3c
0c
cc
78
ENDCHAR
STARTCHAR uni0456
ENCODING 1110
SWIDTH 250 0
DWIDTH 4 0
BBX 2 11 1 0
BITMAP
c0
c0
00
c0
c0
c0
c0
c0
c0
c0
c0
ENDCHAR
STARTCHAR uni0457
ENCODING 1111
SWIDTH 250 0
DWIDTH 5 0
BBX 5 11 0 0
BITMAP
d8
d8
00
60
60
60
60
60
60
60
60
ENDCHAR
STARTCHAR uni0458
ENCODING 1112
SWIDTH 250 0
DWIDTH 4 0
BBX 3 14 0 -3
BITMAP
60
60
00
60
60
60
60
60
60
60
60
60
60
c0
ENDCHAR
STARTCHAR uni0459
ENCODING 1113
SWIDTH 688 0
DWIDTH 11 0
BBX 10 8 0 0
BITMAP
3000
3800
5800
5f80
58c0
8cc0
8cc0
8f80
ENDCHAR
STARTCHAR uni045A
ENCODING 1114
SWIDTH 813 0
DWIDTH 14 0
BBX 12 8 1 0
BITMAP
c600
c600
c600
ffe0
c630
c630
c630
c7e0
ENDCHAR
STARTCHAR uni045B
ENCODING 1115
SWIDTH 563 0
DWIDTH 9 0
BBX 8 11 0 0
BITMAP
60
fc
60
6e
73
63
63
63
63
63
63
ENDCHAR
STARTCHAR uni045C
ENCODING 1116
SWIDTH 500 0
DWIDTH 9 0
BBX 7 12 1 0
BITMAP
06
0c
18
00
c6
cc
c8
d8
ec
cc
c6
c6
ENDCHAR
STARTCHAR uni045E
ENCODING 1118
SWIDTH 438 0
DWIDTH 7 0
BBX 7 14 0 -3
BITMAP
66
3c
00
c2
c6
64
64
2c
38
38
18
10
30
60
ENDCHAR
STARTCHAR uni045F
ENCODING 1119
SWIDTH 563 0
DWIDTH 9 0
BBX 7 10 1 -2
BITMAP
c6
c6
c6
c6
c6
c6
c6
fe
18
18
ENDCHAR
STARTCHAR uni0490
ENCODING 1168
SWIDTH 438 0
DWIDTH 7 0
BBX 6 13 1 0
BITMAP
0c
0c
fc
c0
c0
c0
c0
c0
c0
c0
c0
c0
c0
ENDCHAR
STARTCHAR uni0491
ENCODING 1169
SWIDTH 375 0
DWIDTH 6 0
BBX 5 10 1 0
BITMAP
18
18
f8
c0
c0
c0
c0
c0
c0
c0
ENDCHAR
STARTCHAR uni1E80
ENCODING 7808
SWIDTH 875 0
DWIDTH 14 0
BBX 14 13 0 0
BITMAP
0600
0300
0000
c304
c30c
c308
6388
6598
34d0
34f0
38e0
1860
1860
ENDCHAR
STARTCHAR uni1E81
ENCODING 7809
SWIDTH 688 0
DWIDTH 11 0
BBX 11 12 0 0
BITMAP
1800
0c00
0600
0000
c460
c460
6ec0
6ec0
6ac0
3b80
3180
3180
ENDCHAR
STARTCHAR uni1E82
ENCODING 7810
SWIDTH 875 0
DWIDTH 14 0
BBX 14 13 0 0
BITMAP
0180
0300
0000
c304
c30c
c308
6388
6598
34d0
34f0
38e0
1860
1860
ENDCHAR
STARTCHAR uni1E83
ENCODING 7811
SWIDTH 688 0
DWIDTH 11 0
BBX 11 12 0 0
BITMAP
0300
0600
0c00
0000
c460
c460
6ec0
6ec0
6ac0
3b80
3180
3180
ENDCHAR
STARTCHAR uni1E84
ENCODING 7812
SWIDTH 875 0
DWIDTH 14 0
BBX 14 13 0 0
BITMAP
06c0
06c0
0000
c304
c30c
c308
6388
6598
34d0
34f0
38e0
1860
1860
ENDCHAR
STARTCHAR uni1E85
ENCODING 7813
SWIDTH 688 0
DWIDTH 11 0
BBX 11 11 0 0
BITMAP
1b00
1b00
0000
c460
c460
6ec0
6ec0
6ac0
3b80
3180
3180
ENDCHAR
STARTCHAR uni1EF2
ENCODING 7922
SWIDTH 563 0
DWIDTH 8 0
BBX 8 13 0 0
BITMAP
18
0c
00
c3
62
66
34
3c
18
18
18
18
18
ENDCHAR
STARTCHAR uni1EF3
ENCODING 7923
SWIDTH 438 0
DWIDTH 7 0
BBX 7 15 0 -3
BITMAP
60
30
18
00
c2
c6
64
64
2c
38
38
18
10
30
60
ENDCHAR
STARTCHAR uni2015
ENCODING 8213
SWIDTH 688 0
DWIDTH 11 0
BBX 11 1 0 3
BITMAP
ffe0
ENDCHAR
STARTCHAR uni2017
ENCODING 8215
SWIDTH 500 0
DWIDTH 8 0
BBX 8 3 0 -3
BITMAP
ff
00
ff
ENDCHAR
STARTCHAR uni201B
ENCODING 8219
SWIDTH 250 0
DWIDTH 4 0
BBX 2 4 1 7
BITMAP
c0
c0
80
40
ENDCHAR
STARTCHAR uni2032
ENCODING 8242
SWIDTH 188 0
DWIDTH 3 0
BBX 3 4 0 7
BITMAP
60
40
c0
80
ENDCHAR
STARTCHAR uni2033
ENCODING 8243
SWIDTH 375 0
DWIDTH 6 0
BBX 6 4 0 7
BITMAP
6c
48
d8
90
ENDCHAR
STARTCHAR uni203C
ENCODING 8252
SWIDTH 500 0
DWIDTH 8 0
BBX 6 11 1 0
BITMAP
cc
cc
cc
cc
cc
cc
cc
cc
00
cc
cc
ENDCHAR
STARTCHAR uni203E
ENCODING 8254
SWIDTH 563 0
DWIDTH 9 0
BBX 9 1 0 12
BITMAP
ff80
ENDCHAR
STARTCHAR uni2044
ENCODING 8260
SWIDTH 125 0
DWIDTH 7 0
BBX 7 11 0 0
BITMAP
06
04
0c
08
18
10
30
20
60
40
c0
ENDCHAR
STARTCHAR uni207F
ENCODING 8319
SWIDTH 375 0
DWIDTH 8 0
BBX 6 6 1 4
BITMAP
d8
ec
cc
cc
cc
cc
ENDCHAR
STARTCHAR uni20A4
ENCODING 8356
SWIDTH 563 0
DWIDTH 9 0
BBX 9 11 0 0
BITMAP
0e00
1b00
3000
3000
7c00
3000
7c00
3000
3000
3180
ff00
ENDCHAR
STARTCHAR uni20A7
ENCODING 8359
SWIDTH 1000 0
DWIDTH 17 0
BBX 15 11 1 0
BITMAP
fc00
c600
c300
c300
c600
fc80
c1ee
c090
c09e
c082
c0dc
ENDCHAR
STARTCHAR uni2105
ENCODING 8453
SWIDTH 938 0
DWIDTH 15 0
BBX 13 11 1 0
BITMAP
70c0
d880
c180
c100
db00
7270
06d8
04d8
0cd8
08d8
1870
ENDCHAR
STARTCHAR uni2113
ENCODING 8467
SWIDTH 563 0
DWIDTH 9 0
BBX 5 11 2 0
BITMAP
18
28
28
28
30
60
40
c0
40
50
60
ENDCHAR
STARTCHAR uni2116
ENCODING 8470
SWIDTH 1000 0
DWIDTH 16 0
BBX 14 11 1 0
BITMAP
c100
e100
e100
b138
b16c
996c
8d6c
8d6c
8738
8300
837c
ENDCHAR
STARTCHAR uni212E
ENCODING 8494
SWIDTH 625 0
DWIDTH 10 0
BBX 8 9 1 0
BITMAP
3c
42
c3
ff
c0
c0
c1
62
3c
ENDCHAR
STARTCHAR uni215B
ENCODING 8539
SWIDTH 875 0
DWIDTH 15 0
BBX 14 11 0 0
BITMAP
2060
e0c0
6080
6180
6338
626c
f66c
0c38
086c
186c
3038
ENDCHAR
STARTCHAR uni215C
ENCODING 8540
SWIDTH 875 0
DWIDTH 15 0
BBX 14 11 0 0
BITMAP
7060
d8c0
1880
3180
1b38
da6c
766c
0c38
086c
186c
3038
ENDCHAR
STARTCHAR uni215D
ENCODING 8541
SWIDTH 875 0
DWIDTH 15 0
BBX 14 11 0 0
BITMAP
f860
80c0
f080
9980
1b38
da6c
766c
0c38
086c
186c
3038
ENDCHAR
STARTCHAR uni215E
ENCODING 8542
SWIDTH 875 0
DWIDTH 15 0
BBX 13 11 1 0
BITMAP
f8c0
1980
1100
3300
2670
64d8
6cd8
1870
10d8
30d8
6070
ENDCHAR
STARTCHAR uni2190
ENCODING 8592
SWIDTH 1000 0
DWIDTH 16 0
BBX 15 5 1 2
BITMAP
3000
6000
fffe
6000
3000
ENDCHAR
STARTCHAR uni2191
ENCODING 8593
SWIDTH 500 0
DWIDTH 7 0
BBX 5 14 1 -3
BITMAP
20
70
f8
a8
20
20
20
20
20
20
20
20
20
20
ENDCHAR
STARTCHAR uni2192
ENCODING 8594
SWIDTH 1000 0
DWIDTH 16 0
BBX 15 5 1 2
BITMAP
0018
000c
fffe
000c
0018
ENDCHAR
STARTCHAR uni2193
ENCODING 8595
SWIDTH 500 0
DWIDTH 7 0
BBX 5 14 1 -3
BITMAP
20
20
20
20
20
20
20
20
20
20
a8
f8
70
20
ENDCHAR
STARTCHAR uni2194
ENCODING 8596
SWIDTH 1000 0
DWIDTH 17 0
BBX 15 5 1 2
BITMAP
3018
600c
fffe
600c
3018
ENDCHAR
STARTCHAR uni2195
ENCODING 8597
SWIDTH 500 0
DWIDTH 7 0
BBX 5 15 1 -3
BITMAP
20
70
f8
a8
20
20
20
20
20
20
20
a8
f8
70
20
ENDCHAR
STARTCHAR uni21A8
ENCODING 8616
SWIDTH 500 0
DWIDTH 7 0
BBX 5 15 1 -3
BITMAP
20
70
f8
a8
20
20
20
20
20
a8
f8
70
20
00
f8
ENDCHAR
STARTCHAR uni221F
ENCODING 8735
SWIDTH 1000 0
DWIDTH 16 0
BBX 10 10 3 0
BITMAP
8000
8000
8000
8000
8000
8000
8000
8000
8000
ffc0
ENDCHAR
STARTCHAR uni2229
ENCODING 8745
SWIDTH 750 0
DWIDTH 11 0
BBX 9 11 1 0
BITMAP
3e00
6300
c180
c180
c180
c180
c180
c180
c180
c180
c180
ENDCHAR
STARTCHAR uni2261
ENCODING 8801
SWIDTH 563 0
DWIDTH 9 0
BBX 7 8 1 2
BITMAP
fe
fe
00
fe
fe
00
fe
fe
ENDCHAR
STARTCHAR uni2302
ENCODING 8962
SWIDTH 625 0
DWIDTH 12 0
BBX 12 9 0 0
BITMAP
0600
0900
1080
2040
6060
a050
2040
2040
3fc0
ENDCHAR
STARTCHAR uni2310
ENCODING 8976
SWIDTH 563 0
DWIDTH 9 0
BBX 7 4 1 2
BITMAP
fe
80
80
80
ENDCHAR
STARTCHAR uni2320
ENCODING 8992
SWIDTH 625 0
DWIDTH 9 0
BBX 3 16 4 -3
BITMAP
60
a0
80
80
80
80
80
80
80
80
80
80
80
80
80
80
ENDCHAR
STARTCHAR uni2321
ENCODING 8993
SWIDTH 625 0
DWIDTH 9 0
BBX 3 16 2 -3
BITMAP
20
20
20
20
20
20
20
20
20
20
20
20
20
20
a0
c0
ENDCHAR
STARTCHAR uni2500
ENCODING 9472
SWIDTH 688 0
DWIDTH 11 0
BBX 11 1 0 4
BITMAP
ffe0
ENDCHAR
STARTCHAR uni2502
ENCODING 9474
SWIDTH 688 0
DWIDTH 11 0
BBX 1 16 5 -3
BITMAP
80
80
80
80
80
80
80
80
80
80
80
80
80
80
80
80
ENDCHAR
STARTCHAR uni250C
ENCODING 9484
SWIDTH 688 0
DWIDTH 11 0
BBX 6 8 5 -3
BITMAP
fc
80
80
80
80
80
80
80
ENDCHAR
STARTCHAR uni2510
ENCODING 9488
SWIDTH 688 0
DWIDTH 11 0
BBX 6 8 0 -3
BITMAP
fc
04
04
04
04
04
04
04
ENDCHAR
STARTCHAR uni2514
ENCODING 9492
SWIDTH 688 0
DWIDTH 11 0
BBX 6 9 5 4
BITMAP
80
80
80
80
80
80
80
80
fc
ENDCHAR
STARTCHAR uni2518
ENCODING 9496
SWIDTH 688 0
DWIDTH 11 0
BBX 6 9 0 4
BITMAP
04
04
04
04
04
04
04
04
fc
ENDCHAR
STARTCHAR uni251C
ENCODING 9500
SWIDTH 688 0
DWIDTH 11 0
BBX 6 16 5 -3
BITMAP
80
80
80
80
80
80
80
80
fc
80
80
80
80
80
80
80
ENDCHAR
STARTCHAR uni2524
ENCODING 9508
SWIDTH 688 0
DWIDTH 11 0
BBX 6 16 0 -3
BITMAP
04
04
04
04
04
04
04
04
fc
04
04
04
04
04
04
04
ENDCHAR
STARTCHAR uni252C
ENCODING 9516
SWIDTH 688 0
DWIDTH 11 0
BBX 11 8 0 -3
BITMAP
ffe0
0400
0400
0400
0400
0400
0400
0400
ENDCHAR
STARTCHAR uni2534
ENCODING 9524
SWIDTH 688 0
DWIDTH 11 0
BBX 11 9 0 4
BITMAP
0400
0400
0400
0400
0400
0400
0400
0400
ffe0
ENDCHAR
STARTCHAR uni253C
ENCODING 9532
SWIDTH 688 0
DWIDTH 11 0
BBX 11 16 0 -3
BITMAP
0400
0400
0400
0400
0400
0400
0400
0400
ffe0
0400
0400
0400
0400
0400
0400
0400
ENDCHAR
STARTCHAR uni2550
ENCODING 9552
SWIDTH 688 0
DWIDTH 11 0
BBX 11 3 0 3
BITMAP
ffe0
0000
ffe0
ENDCHAR
STARTCHAR uni2551
ENCODING 9553
SWIDTH 688 0
DWIDTH 11 0
BBX 3 16 4 -3
BITMAP
a0
a0
a0
a0
a0
a0
a0
a0
a0
a0
a0
a0
a0
a0
a0
a0
ENDCHAR
STARTCHAR uni2552
ENCODING 9554
SWIDTH 688 0
DWIDTH 11 0
BBX 6 9 5 -3
BITMAP
fc
80
fc
80
80
80
80
80
80
ENDCHAR
STARTCHAR uni2553
ENCODING 9555
SWIDTH 688 0
DWIDTH 11 0
BBX 7 8 4 -3
BITMAP
fe
a0
a0
a0
a0
a0
a0
a0
ENDCHAR
STARTCHAR uni2554
ENCODING 9556
SWIDTH 688 0
DWIDTH 11 0
BBX 7 9 4 -3
BITMAP
fe
80
be
a0
a0
a0
a0
a0
a0
ENDCHAR
STARTCHAR uni2555
ENCODING 9557
SWIDTH 688 0
DWIDTH 11 0
BBX 6 9 0 -3
BITMAP
fc
04
fc
04
04
04
04
04
04
ENDCHAR
STARTCHAR uni2556
ENCODING 9558
SWIDTH 688 0
DWIDTH 11 0
BBX 7 8 0 -3
BITMAP
fe
0a
0a
0a
0a
0a
0a
0a
ENDCHAR
STARTCHAR uni2557
ENCODING 9559
SWIDTH 688 0
DWIDTH 11 0
BBX 7 9 0 -3
BITMAP
fe
02
fa
0a
0a
0a
0a
0a
0a
ENDCHAR
STARTCHAR uni2558
ENCODING 9560
SWIDTH 688 0
DWIDTH 11 0
BBX 6 10 5 3
BITMAP
80
80
80
80
80
80
80
fc
80
fc
ENDCHAR
STARTCHAR uni2559
ENCODING 9561
SWIDTH 688 0
DWIDTH 11 0
BBX 7 9 4 4
BITMAP
a0
a0
a0
a0
a0
a0
a0
a0
fe
ENDCHAR
STARTCHAR uni255A
ENCODING 9562
SWIDTH 688 0
DWIDTH 11 0
BBX 7 10 4 3
BITMAP
a0
a0
a0
a0
a0
a0
a0
be
80
fe
ENDCHAR
STARTCHAR uni255B
ENCODING 9563
SWIDTH 688 0
DWIDTH 11 0
BBX 6 10 0 3
BITMAP
04
04
04
04
04
04
04
fc
04
fc
ENDCHAR
STARTCHAR uni255C
ENCODING 9564
SWIDTH 688 0
DWIDTH 11 0
BBX 7 9 0 4
BITMAP
0a
0a
0a
0a
0a
0a
0a
0a
fe
ENDCHAR
STARTCHAR uni255D
ENCODING 9565
SWIDTH 688 0
DWIDTH 11 0
BBX 7 10 0 3
BITMAP
0a
0a
0a
0a
0a
0a
0a
fa
02
fe
ENDCHAR
STARTCHAR uni255E
ENCODING 9566
SWIDTH 688 0
DWIDTH 11 0
BBX 6 16 5 -3
BITMAP
80
80
80
80
80
80
80
fc
80
fc
80
80
80
80
80
80
ENDCHAR
STARTCHAR uni255F
ENCODING 9567
SWIDTH 688 0
DWIDTH 11 0
BBX 7 16 4 -3
BITMAP
a0
a0
a0
a0
a0
a0
a0
a0
be
a0
a0
a0
a0
a0
a0
a0
ENDCHAR
STARTCHAR uni2560
ENCODING 9568
SWIDTH 688 0
DWIDTH 11 0
BBX 7 16 4 -3
BITMAP
a0
a0
a0
a0
a0
a0
a0
be
80
be
a0
a0
a0
a0
a0
a0
ENDCHAR
STARTCHAR uni2561
ENCODING 9569
SWIDTH 688 0
DWIDTH 11 0
BBX 6 16 0 -3
BITMAP
04
04
04
04
04
04
04
fc
04
fc
04
04
04
04
04
04
ENDCHAR
STARTCHAR uni2562
ENCODING 9570
SWIDTH 688 0
DWIDTH 11 0
BBX 7 16 0 -3
BITMAP
0a
0a
0a
0a
0a
0a
0a
0a
fa
0a
0a
0a
0a
0a
0a
0a
ENDCHAR
STARTCHAR uni2563
ENCODING 9571
SWIDTH 688 0
DWIDTH 11 0
BBX 7 16 0 -3
BITMAP
0a
0a
0a
0a
0a
0a
0a
fa
02
fa
0a
0a
0a
0a
0a
0a
ENDCHAR
STARTCHAR uni2564
ENCODING 9572
SWIDTH 688 0
DWIDTH 11 0
BBX 11 9 0 -3
BITMAP
ffe0
0000
ffe0
0400
0400
0400
0400
0400
0400
ENDCHAR
STARTCHAR uni2565
ENCODING 9573
SWIDTH 688 0
DWIDTH 11 0
BBX 11 8 0 -3
BITMAP
ffe0
0a00
0a00
0a00
0a00
0a00
0a00
0a00
ENDCHAR
STARTCHAR uni2566
ENCODING 9574
SWIDTH 688 0
DWIDTH 11 0
BBX 11 9 0 -3
BITMAP
ffe0
0000
fbe0
0a00
0a00
0a00
0a00
0a00
0a00
ENDCHAR
STARTCHAR uni2567
ENCODING 9575
SWIDTH 688 0
DWIDTH 11 0
BBX 11 10 0 3
BITMAP
0400
0400
0400
0400
0400
0400
0400
ffe0
0000
ffe0
ENDCHAR
STARTCHAR uni2568
ENCODING 9576
SWIDTH 688 0
DWIDTH 11 0
BBX 11 9 0 4
BITMAP
0a00
0a00
0a00
0a00
0a00
0a00
0a00
0a00
ffe0
ENDCHAR
STARTCHAR uni2569
ENCODING 9577
SWIDTH 688 0
DWIDTH 11 0
BBX 11 10 0 3
BITMAP
0a00
0a00
0a00
0a00
0a00
0a00
0a00
fbe0
0000
ffe0
ENDCHAR
STARTCHAR uni256A
ENCODING 9578
SWIDTH 688 0
DWIDTH 11 0
BBX 11 16 0 -3
BITMAP
0400
0400
0400
0400
0400
0400
0400
ffe0
0400
ffe0
0400
0400
0400
0400
0400
0400
ENDCHAR
STARTCHAR uni256B
ENCODING 9579
SWIDTH 688 0
DWIDTH 11 0
BBX 11 16 0 -3
BITMAP
0a00
0a00
0a00
0a00
0a00
0a00
0a00
0a00
ffe0
0a00
0a00
0a00
0a00
0a00
0a00
0a00
ENDCHAR
STARTCHAR uni256C
ENCODING 9580
SWIDTH 688 0
DWIDTH 11 0
BBX 11 16 0 -3
BITMAP
0a00
0a00
0a00
0a00
0a00
0a00
0a00
fbe0
0000
fbe0
0a00
0a00
0a00
0a00
0a00
0a00
ENDCHAR
STARTCHAR uni2580
ENCODING 9600
SWIDTH 688 0
DWIDTH 11 0
BBX 11 8 0 5
BITMAP
ffe0
ffe0
ffe0
ffe0
ffe0
ffe0
ffe0
ffe0
ENDCHAR
STARTCHAR uni2584
ENCODING 9604
SWIDTH 688 0
DWIDTH 11 0
BBX 11 8 0 -3
BITMAP
ffe0
ffe0
ffe0
ffe0
ffe0
ffe0
ffe0
ffe0
ENDCHAR
STARTCHAR uni2588
ENCODING 9608
SWIDTH 688 0
DWIDTH 11 0
BBX 11 16 0 -3
BITMAP
ffe0
ffe0
ffe0
ffe0
ffe0
ffe0
ffe0
ffe0
ffe0
ffe0
ffe0
ffe0
ffe0
ffe0
ffe0
ffe0
ENDCHAR
STARTCHAR uni258C
ENCODING 9612
SWIDTH 688 0
DWIDTH 11 0
BBX 6 16 0 -3
BITMAP
fc
fc
fc
fc
fc
fc
fc
fc
fc
fc
fc
fc
fc
fc
fc
fc
ENDCHAR
STARTCHAR uni2590
ENCODING 9616
SWIDTH 688 0
DWIDTH 11 0
BBX 5 16 6 -3
BITMAP
f8
f8
f8
f8
f8
f8
f8
f8
f8
f8
f8
f8
f8
f8
f8
f8
ENDCHAR
STARTCHAR uni2591
ENCODING 9617
SWIDTH 688 0
DWIDTH 11 0
BBX 11 15 0 -2
BITMAP
2220
0000
8880
0000
2220
0000
8880
0000
2220
0000
8880
0000
2220
0000
8880
ENDCHAR
STARTCHAR uni2592
ENCODING 9618
SWIDTH 688 0
DWIDTH 11 0
BBX 11 15 0 -2
BITMAP
aaa0
0000
5540
0000
aaa0
0000
5540
0000
aaa0
0000
5540
0000
aaa0
0000
5540
ENDCHAR
STARTCHAR uni2593
ENCODING 9619
SWIDTH 688 0
DWIDTH 11 0
BBX 11 16 0 -3
BITMAP
aaa0
ffe0
5540
ffe0
aaa0
ffe0
5540
ffe0
aaa0
ffe0
5540
ffe0
aaa0
ffe0
5540
ffe0
ENDCHAR
STARTCHAR uni25A0
ENCODING 9632
SWIDTH 625 0
DWIDTH 9 0
BBX 7 7 1 0
BITMAP
fe
fe
fe
fe
fe
fe
fe
ENDCHAR
STARTCHAR uni25A1
ENCODING 9633
SWIDTH 625 0
DWIDTH 9 0
BBX 7 7 1 0
BITMAP
fe
82
82
82
82
82
fe
ENDCHAR
STARTCHAR uni25AA
ENCODING 9642
SWIDTH 375 0
DWIDTH 6 0
BBX 4 4 1 3
BITMAP
f0
f0
f0
f0
ENDCHAR
STARTCHAR uni25AB
ENCODING 9643
SWIDTH 375 0
DWIDTH 6 0
BBX 4 4 1 3
BITMAP
f0
90
90
f0
ENDCHAR
STARTCHAR uni25AC
ENCODING 9644
SWIDTH 1000 0
DWIDTH 16 0
BBX 16 3 0 2
BITMAP
ffff
ffff
ffff
ENDCHAR
STARTCHAR uni25B2
ENCODING 9650
SWIDTH 1000 0
DWIDTH 16 0
BBX 11 11 2 0
BITMAP
0400
0400
0e00
0e00
1f00
1f00
3f80
3f80
7fc0
7fc0
ffe0
ENDCHAR
STARTCHAR uni25BA
ENCODING 9658
SWIDTH 1000 0
DWIDTH 16 0
BBX 11 11 2 0
BITMAP
8000
e000
f800
fe00
ff80
ffe0
ff80
fe00
f800
e000
8000
ENDCHAR
STARTCHAR uni25BC
ENCODING 9660
SWIDTH 1000 0
DWIDTH 16 0
BBX 11 11 2 0
BITMAP
ffe0
7fc0
7fc0
3f80
3f80
1f00
1f00
0e00
0e00
0400
0400
ENDCHAR
STARTCHAR uni25C4
ENCODING 9668
SWIDTH 1000 0
DWIDTH 16 0
BBX 11 11 2 0
BITMAP
0020
00e0
03e0
0fe0
3fe0
ffe0
3fe0
0fe0
03e0
00e0
0020
ENDCHAR
STARTCHAR uni25CB
ENCODING 9675
SWIDTH 625 0
DWIDTH 9 0
BBX 7 7 1 1
BITMAP
38
44
82
82
82
44
38
ENDCHAR
STARTCHAR uni25CF
ENCODING 9679
SWIDTH 625 0
DWIDTH 9 0
BBX 7 7 1 1
BITMAP
38
7c
fe
fe
fe
7c
38
ENDCHAR
STARTCHAR uni25D8
ENCODING 9688
SWIDTH 625 0
DWIDTH 10 0
BBX 8 8 1 0
BITMAP
ff
ff
e7
c3
c3
e7
ff
ff
ENDCHAR
STARTCHAR uni25D9
ENCODING 9689
SWIDTH 625 0
DWIDTH 11 0
BBX 9 9 1 0
BITMAP
ff80
e380
dd80
be80
be80
be80
dd80
e380
ff80
ENDCHAR
STARTCHAR uni25E6
ENCODING 9702
SWIDTH 375 0
DWIDTH 6 0
BBX 4 4 1 3
BITMAP
60
90
90
60
ENDCHAR
STARTCHAR uni263A
ENCODING 9786
SWIDTH 1000 0
DWIDTH 16 0
BBX 10 10 3 -1
BITMAP
1e00
6180
4080
8040
9240
8040
9240
4c80
6180
1e00
ENDCHAR
STARTCHAR uni263B
ENCODING 9787
SWIDTH 1000 0
DWIDTH 16 0
BBX 10 10 3 -1
BITMAP
1e00
7f80
7f80
edc0
ffc0
ffc0
dec0
6180
7f80
1e00
ENDCHAR
STARTCHAR uni263C
ENCODING 9788
SWIDTH 938 0
DWIDTH 15 0
BBX 15 15 0 -2
BITMAP
0100
0100
2108
1390
0c60
0820
1010
f01e
1010
0820
0c60
1390
2108
0100
0100
ENDCHAR
STARTCHAR uni2640
ENCODING 9792
SWIDTH 750 0
DWIDTH 11 0
BBX 7 14 2 -2
BITMAP
38
44
82
82
82
44
38
10
10
10
fe
10
10
10
ENDCHAR
STARTCHAR uni2642
ENCODING 9794
SWIDTH 750 0
DWIDTH 11 0
BBX 9 13 2 -1
BITMAP
0600
1f00
2500
0480
0800
0800
3800
4400
8200
8200
8200
4400
3800
ENDCHAR
STARTCHAR uni2660
ENCODING 9824
SWIDTH 688 0
DWIDTH 11 0
BBX 9 10 1 0
BITMAP
0800
0800
1c00
7f00
ff80
ff80
6b00
0800
1c00
7f00
ENDCHAR
STARTCHAR uni2663
ENCODING 9827
SWIDTH 688 0
DWIDTH 11 0
BBX 11 10 0 0
BITMAP
0e00
1f00
1f00
7fc0
ffe0
ffe0
75c0
0400
0e00
3f80
ENDCHAR
STARTCHAR uni2665
ENCODING 9829
SWIDTH 688 0
DWIDTH 11 0
BBX 9 10 1 0
BITMAP
7700
ff80
ff80
ff80
7f00
3e00
1c00
1c00
0800
0800
ENDCHAR
STARTCHAR uni2666
ENCODING 9830
SWIDTH 688 0
DWIDTH 11 0
BBX 7 10 2 0
BITMAP
10
10
38
7c
fe
fe
7c
38
10
10
ENDCHAR
STARTCHAR uni266A
ENCODING 9834
SWIDTH 500 0
DWIDTH 8 0
BBX 8 11 0 0
BITMAP
0e
0f
09
09
08
08
08
78
f8
f8
70
ENDCHAR
STARTCHAR uni266B
ENCODING 9835
SWIDTH 750 0
DWIDTH 12 0
BBX 11 13 0 -1
BITMAP
0060
03e0
0fa0
0c20
0820
0820
0820
09e0
0be0
7be0
f9c0
f800
7000
ENDCHAR
STARTCHAR uniF001
ENCODING 61441
SWIDTH 563 0
DWIDTH 9 0
BBX 8 11 0 0
BITMAP
3b
63
60
fb
63
63
63
63
63
63
63
ENDCHAR
STARTCHAR uniF002
ENCODING 61442
SWIDTH 563 0
DWIDTH 9 0
BBX 8 11 0 0
BITMAP
3b
63
63
fb
63
63
63
63
63
63
63
ENDCHAR
STARTCHAR uniF003
ENCODING 61443
SWIDTH 375 0
DWIDTH 7 0
BBX 6 7 1 4
BITMAP
18
38
58
98
fc
18
18
ENDCHAR
STARTCHAR uniF004
ENCODING 61444
SWIDTH 500 0
DWIDTH 8 0
BBX 2 3 4 8
BITMAP
c0
c0
80
ENDCHAR
STARTCHAR uniF005
ENCODING 61445
SWIDTH 500 0
DWIDTH 8 0
BBX 2 2 3 -3
BITMAP
c0
80
ENDCHAR
STARTCHAR uni00A4
ENCODING 164
SWIDTH 688 0
DWIDTH 11 0
BBX 9 8 1 2
BITMAP
8080
5d00
2200
4100
4100
2200
5d00
8080
ENDCHAR
STARTCHAR uni2b11
ENCODING 11025
SWIDTH 500 0
DWIDTH 7 0
BBX 6 13 1 -2
BITMAP
20
70
f8
a8
20
20
20
20
20
20
20
20
3c
ENDCHAR
STARTCHAR uni2223
ENCODING 8739
SWIDTH 250 0
DWIDTH 8 0
BBX 2 14 3 -2
BITMAP
c0
c0
c0
c0
c0
c0
c0
c0
c0
c0
c0
c0
c0
c0
ENDCHAR
STARTCHAR uni2612
ENCODING 9746
SWIDTH 700 0
DWIDTH 12 0
BBX 10 10 1 0
BITMAP
ffc0
8040
a140
9240
8c40
8c40
9240
a140
8040
ffc0
ENDCHAR
STARTCHAR uniE000
ENCODING 57344
SWIDTH 700 0
DWIDTH 12 0
BBX 10 8 1 1
BITMAP
7800
ffc0
8040
8040
8040
8040
8040
ffc0
ENDCHAR
ENDFONT
